<?xml version="1.0" standalone="no"?>
 <!DOCTYPE svg PUBLIC "-//W3C//DTD SVG 1.1//EN" 
 "http://www.w3.org/Graphics/SVG/1.1/DTD/svg11.dtd"> 
<svg
  xmlns:svg="http://www.w3.org/2000/svg"
  xmlns="http://www.w3.org/2000/svg"
  xmlns:xlink="http://www.w3.org/1999/xlink"
  version="1.1"
  width="297.0022mm" height="210.0072mm" viewBox="0.0000 0.0000 297.0022 210.0072">
<title>SVG Image created as caretaker-F_Mask.svg date 2025/03/07 10:18:57 </title>
  <desc>Image generated by PCBNEW </desc>
<g style="fill:#000000; fill-opacity:1.0000;stroke:#000000; stroke-opacity:1.0000;
stroke-linecap:round; stroke-linejoin:round;"
 transform="translate(0 0) scale(1 1)">
</g>
<g style="fill:#000000; fill-opacity:1.0000; 
stroke:#000000; stroke-width:0.0212; stroke-opacity:1; 
stroke-linecap:round; stroke-linejoin:round;">
<rect x="-5.000000" y="-5.000000" width="10.000000" height="10.000000" rx="0.000000" />
</g>
<g style="fill:#FFFFFF; fill-opacity:1.0000; stroke:none;">
<circle cx="57.9850" cy="81.2800" r="1.0000" /> 
</g>
<g style="fill:#FFFFFF; fill-opacity:1.0000; stroke:none;">
<circle cx="60.5250" cy="81.2800" r="1.0000" /> 
<path style="fill:#FFFFFF; fill-opacity:1.0000; stroke:none;fill-rule:evenodd;"
d="M 60.8670,66.1371
60.9627,66.1561
61.0438,66.2103
61.0980,66.2914
61.1170,66.3871
61.1170,66.9121
61.0980,67.0078
61.0438,67.0889
60.9627,67.1431
60.8670,67.1621
59.9670,67.1621
59.8713,67.1431
59.7902,67.0889
59.7360,67.0078
59.7170,66.9121
59.7170,66.3871
59.7360,66.2914
59.7902,66.2103
59.8713,66.1561
59.9670,66.1371
Z" /> 
<path style="fill:#FFFFFF; fill-opacity:1.0000; stroke:none;fill-rule:evenodd;"
d="M 60.8670,67.9621
60.9627,67.9811
61.0438,68.0353
61.0980,68.1164
61.1170,68.2121
61.1170,68.7371
61.0980,68.8328
61.0438,68.9139
60.9627,68.9681
60.8670,68.9871
59.9670,68.9871
59.8713,68.9681
59.7902,68.9139
59.7360,68.8328
59.7170,68.7371
59.7170,68.2121
59.7360,68.1164
59.7902,68.0353
59.8713,67.9811
59.9670,67.9621
Z" /> 
</g>
<g style="fill:#FFFFFF; fill-opacity:1.0000; stroke:none;">
<circle cx="42.7450" cy="81.2800" r="1.0000" /> 
</g>
<g style="fill:#FFFFFF; fill-opacity:1.0000; stroke:none;">
<circle cx="45.2850" cy="81.2800" r="1.0000" /> 
</g>
<g style="fill:#FFFFFF; fill-opacity:1.0000; stroke:none;">
<circle cx="52.9050" cy="81.2800" r="1.0000" /> 
</g>
<g style="fill:#FFFFFF; fill-opacity:1.0000; stroke:none;">
<circle cx="55.4450" cy="81.2800" r="1.0000" /> 
<path style="fill:#FFFFFF; fill-opacity:1.0000; stroke:none;fill-rule:evenodd;"
d="M 36.6650,46.7200
36.6650,44.7200
38.6650,44.7200
38.6650,46.7200
Z" /> 
</g>
<g style="fill:#FFFFFF; fill-opacity:1.0000; stroke:none;">
<circle cx="37.6650" cy="48.2600" r="1.0000" /> 
</g>
<g style="fill:#FFFFFF; fill-opacity:1.0000; stroke:none;">
<circle cx="37.6650" cy="50.8000" r="1.0000" /> 
</g>
<g style="fill:#FFFFFF; fill-opacity:1.0000; stroke:none;">
<circle cx="37.6650" cy="53.3400" r="1.0000" /> 
</g>
<g style="fill:#FFFFFF; fill-opacity:1.0000; stroke:none;">
<circle cx="37.6650" cy="55.8800" r="1.0000" /> 
</g>
<g style="fill:#FFFFFF; fill-opacity:1.0000; stroke:none;">
<circle cx="37.6650" cy="58.4200" r="1.0000" /> 
</g>
<g style="fill:#FFFFFF; fill-opacity:1.0000; stroke:none;">
<circle cx="37.6650" cy="60.9600" r="1.0000" /> 
</g>
<g style="fill:#FFFFFF; fill-opacity:1.0000; stroke:none;">
<circle cx="37.6650" cy="63.5000" r="1.0000" /> 
<path style="fill:#FFFFFF; fill-opacity:1.0000; stroke:none;fill-rule:evenodd;"
d="M 59.5250,46.7200
59.5250,44.7200
61.5250,44.7200
61.5250,46.7200
Z" /> 
</g>
<g style="fill:#FFFFFF; fill-opacity:1.0000; stroke:none;">
<circle cx="60.5250" cy="48.2600" r="1.0000" /> 
</g>
<g style="fill:#FFFFFF; fill-opacity:1.0000; stroke:none;">
<circle cx="60.5250" cy="50.8000" r="1.0000" /> 
</g>
<g style="fill:#FFFFFF; fill-opacity:1.0000; stroke:none;">
<circle cx="60.5250" cy="53.3400" r="1.0000" /> 
</g>
<g style="fill:#FFFFFF; fill-opacity:1.0000; stroke:none;">
<circle cx="60.5250" cy="55.8800" r="1.0000" /> 
</g>
<g style="fill:#FFFFFF; fill-opacity:1.0000; stroke:none;">
<circle cx="60.5250" cy="58.4200" r="1.0000" /> 
</g>
<g style="fill:#FFFFFF; fill-opacity:1.0000; stroke:none;">
<circle cx="60.5250" cy="60.9600" r="1.0000" /> 
</g>
<g style="fill:#FFFFFF; fill-opacity:1.0000; stroke:none;">
<circle cx="60.5250" cy="63.5000" r="1.0000" /> 
<path style="fill:#FFFFFF; fill-opacity:1.0000; stroke:none;fill-rule:evenodd;"
d="M 53.2820,61.9160
53.3777,61.9350
53.4588,61.9892
53.5130,62.0703
53.5320,62.1660
53.5320,62.8660
53.5130,62.9617
53.4588,63.0428
53.3777,63.0970
53.2820,63.1160
52.3820,63.1160
52.2863,63.0970
52.2052,63.0428
52.1510,62.9617
52.1320,62.8660
52.1320,62.1660
52.1510,62.0703
52.2052,61.9892
52.2863,61.9350
52.3820,61.9160
Z" /> 
<path style="fill:#FFFFFF; fill-opacity:1.0000; stroke:none;fill-rule:evenodd;"
d="M 53.2820,63.9160
53.3777,63.9350
53.4588,63.9892
53.5130,64.0703
53.5320,64.1660
53.5320,64.8660
53.5130,64.9617
53.4588,65.0428
53.3777,65.0970
53.2820,65.1160
52.3820,65.1160
52.2863,65.0970
52.2052,65.0428
52.1510,64.9617
52.1320,64.8660
52.1320,64.1660
52.1510,64.0703
52.2052,63.9892
52.2863,63.9350
52.3820,63.9160
Z" /> 
</g>
<g style="fill:#FFFFFF; fill-opacity:1.0000; stroke:none;">
<circle cx="37.6650" cy="81.2800" r="1.0000" /> 
</g>
<g style="fill:#FFFFFF; fill-opacity:1.0000; stroke:none;">
<circle cx="40.2050" cy="81.2800" r="1.0000" /> 
<path style="fill:#FFFFFF; fill-opacity:1.0000; stroke:none;fill-rule:evenodd;"
d="M 54.5180,67.1140
54.5370,67.0183
54.5912,66.9372
54.6723,66.8830
54.7680,66.8640
55.4680,66.8640
55.5637,66.8830
55.6448,66.9372
55.6990,67.0183
55.7180,67.1140
55.7180,68.0140
55.6990,68.1097
55.6448,68.1908
55.5637,68.2450
55.4680,68.2640
54.7680,68.2640
54.6723,68.2450
54.5912,68.1908
54.5370,68.1097
54.5180,68.0140
Z" /> 
<path style="fill:#FFFFFF; fill-opacity:1.0000; stroke:none;fill-rule:evenodd;"
d="M 56.5180,67.1140
56.5370,67.0183
56.5912,66.9372
56.6723,66.8830
56.7680,66.8640
57.4680,66.8640
57.5637,66.8830
57.6448,66.9372
57.6990,67.0183
57.7180,67.1140
57.7180,68.0140
57.6990,68.1097
57.6448,68.1908
57.5637,68.2450
57.4680,68.2640
56.7680,68.2640
56.6723,68.2450
56.5912,68.1908
56.5370,68.1097
56.5180,68.0140
Z" /> 
</g>
<g style="fill:#FFFFFF; fill-opacity:1.0000; stroke:none;">
<circle cx="47.8250" cy="81.2800" r="1.0000" /> 
</g>
<g style="fill:#FFFFFF; fill-opacity:1.0000; stroke:none;">
<circle cx="50.3650" cy="81.2800" r="1.0000" /> 
<path style="fill:#FFFFFF; fill-opacity:1.0000; stroke:none;fill-rule:evenodd;"
d="M 59.6795,71.0360
59.6909,70.9786
59.7234,70.9299
59.7721,70.8974
59.8295,70.8860
61.0045,70.8860
61.0619,70.8974
61.1106,70.9299
61.1431,70.9786
61.1545,71.0360
61.1545,71.3360
61.1431,71.3934
61.1106,71.4421
61.0619,71.4746
61.0045,71.4860
59.8295,71.4860
59.7721,71.4746
59.7234,71.4421
59.6909,71.3934
59.6795,71.3360
Z" /> 
<path style="fill:#FFFFFF; fill-opacity:1.0000; stroke:none;fill-rule:evenodd;"
d="M 59.6795,72.9360
59.6909,72.8786
59.7234,72.8299
59.7721,72.7974
59.8295,72.7860
61.0045,72.7860
61.0619,72.7974
61.1106,72.8299
61.1431,72.8786
61.1545,72.9360
61.1545,73.2360
61.1431,73.2934
61.1106,73.3421
61.0619,73.3746
61.0045,73.3860
59.8295,73.3860
59.7721,73.3746
59.7234,73.3421
59.6909,73.2934
59.6795,73.2360
Z" /> 
<path style="fill:#FFFFFF; fill-opacity:1.0000; stroke:none;fill-rule:evenodd;"
d="M 61.5545,71.9860
61.5659,71.9286
61.5984,71.8799
61.6471,71.8474
61.7045,71.8360
62.8795,71.8360
62.9369,71.8474
62.9856,71.8799
63.0181,71.9286
63.0295,71.9860
63.0295,72.2860
63.0181,72.3434
62.9856,72.3921
62.9369,72.4246
62.8795,72.4360
61.7045,72.4360
61.6471,72.4246
61.5984,72.3921
61.5659,72.3434
61.5545,72.2860
Z" /> 
</g> 
</svg>
