<?xml version="1.0" standalone="no"?>
 <!DOCTYPE svg PUBLIC "-//W3C//DTD SVG 1.1//EN" 
 "http://www.w3.org/Graphics/SVG/1.1/DTD/svg11.dtd"> 
<svg
  xmlns:svg="http://www.w3.org/2000/svg"
  xmlns="http://www.w3.org/2000/svg"
  xmlns:xlink="http://www.w3.org/1999/xlink"
  version="1.1"
  width="297.0022mm" height="210.0072mm" viewBox="0.0000 0.0000 297.0022 210.0072">
<title>SVG Image created as caretaker-F_Mask.svg date 2025/03/08 19:42:25 </title>
  <desc>Image generated by PCBNEW </desc>
<g style="fill:#000000; fill-opacity:1.0000;stroke:#000000; stroke-opacity:1.0000;
stroke-linecap:round; stroke-linejoin:round;"
 transform="translate(0 0) scale(1 1)">
<path style="fill:none; 
stroke:#000000; stroke-width:0.1000; stroke-opacity:1; 
stroke-linecap:round; stroke-linejoin:round;fill:none"
d="M 33.2010,43.6880
62.0110,43.6880
62.0110,85.7330
33.2010,85.7330
Z" /> 
</g>
<g style="fill:#000000; fill-opacity:1.0000; stroke:none;">
<circle cx="49.7500" cy="81.5000" r="1.0000" /> 
</g>
<g style="fill:#000000; fill-opacity:1.0000; stroke:none;">
<circle cx="53.2500" cy="81.5000" r="1.0000" /> 
</g>
<g style="fill:#000000; fill-opacity:1.0000; stroke:none;">
<circle cx="42.7500" cy="81.5000" r="1.0000" /> 
</g>
<g style="fill:#000000; fill-opacity:1.0000; stroke:none;">
<circle cx="46.2500" cy="81.5000" r="1.0000" /> 
</g>
<g style="fill:#000000; fill-opacity:1.0000; stroke:none;">
<circle cx="35.7500" cy="81.5000" r="1.0000" /> 
</g>
<g style="fill:#000000; fill-opacity:1.0000; stroke:none;">
<circle cx="39.2500" cy="81.5000" r="1.0000" /> 
</g>
<g style="fill:#000000; fill-opacity:1.0000; stroke:none;">
<circle cx="37.5000" cy="71.2500" r="1.0000" /> 
</g>
<g style="fill:#000000; fill-opacity:1.0000; stroke:none;">
<circle cx="37.5000" cy="74.7500" r="1.0000" /> 
<path style="fill:#000000; fill-opacity:1.0000; stroke:none;fill-rule:evenodd;"
d="M 56.5875,66.9500
56.5685,67.0457
56.5143,67.1268
56.4332,67.1810
56.3375,67.2000
55.8125,67.2000
55.7168,67.1810
55.6357,67.1268
55.5815,67.0457
55.5625,66.9500
55.5625,66.0500
55.5815,65.9543
55.6357,65.8732
55.7168,65.8190
55.8125,65.8000
56.3375,65.8000
56.4332,65.8190
56.5143,65.8732
56.5685,65.9543
56.5875,66.0500
Z" /> 
<path style="fill:#000000; fill-opacity:1.0000; stroke:none;fill-rule:evenodd;"
d="M 54.7625,66.9500
54.7435,67.0457
54.6893,67.1268
54.6082,67.1810
54.5125,67.2000
53.9875,67.2000
53.8918,67.1810
53.8107,67.1268
53.7565,67.0457
53.7375,66.9500
53.7375,66.0500
53.7565,65.9543
53.8107,65.8732
53.8918,65.8190
53.9875,65.8000
54.5125,65.8000
54.6082,65.8190
54.6893,65.8732
54.7435,65.9543
54.7625,66.0500
Z" /> 
<path style="fill:#000000; fill-opacity:1.0000; stroke:none;fill-rule:evenodd;"
d="M 34.6600,49.1600
34.6600,47.3600
36.4600,47.3600
36.4600,49.1600
Z" /> 
</g>
<g style="fill:#000000; fill-opacity:1.0000; stroke:none;">
<circle cx="35.5600" cy="50.8000" r="0.9000" /> 
</g>
<g style="fill:#000000; fill-opacity:1.0000; stroke:none;">
<circle cx="35.5600" cy="53.3400" r="0.9000" /> 
</g>
<g style="fill:#000000; fill-opacity:1.0000; stroke:none;">
<circle cx="35.5600" cy="55.8800" r="0.9000" /> 
</g>
<g style="fill:#000000; fill-opacity:1.0000; stroke:none;">
<circle cx="35.5600" cy="58.4200" r="0.9000" /> 
</g>
<g style="fill:#000000; fill-opacity:1.0000; stroke:none;">
<circle cx="35.5600" cy="60.9600" r="0.9000" /> 
</g>
<g style="fill:#000000; fill-opacity:1.0000; stroke:none;">
<circle cx="35.5600" cy="63.5000" r="0.9000" /> 
</g>
<g style="fill:#000000; fill-opacity:1.0000; stroke:none;">
<circle cx="35.5600" cy="66.0400" r="0.9000" /> 
<path style="fill:#000000; fill-opacity:1.0000; stroke:none;fill-rule:evenodd;"
d="M 57.5200,49.1600
57.5200,47.3600
59.3200,47.3600
59.3200,49.1600
Z" /> 
</g>
<g style="fill:#000000; fill-opacity:1.0000; stroke:none;">
<circle cx="58.4200" cy="50.8000" r="0.9000" /> 
</g>
<g style="fill:#000000; fill-opacity:1.0000; stroke:none;">
<circle cx="58.4200" cy="53.3400" r="0.9000" /> 
</g>
<g style="fill:#000000; fill-opacity:1.0000; stroke:none;">
<circle cx="58.4200" cy="55.8800" r="0.9000" /> 
</g>
<g style="fill:#000000; fill-opacity:1.0000; stroke:none;">
<circle cx="58.4200" cy="58.4200" r="0.9000" /> 
</g>
<g style="fill:#000000; fill-opacity:1.0000; stroke:none;">
<circle cx="58.4200" cy="60.9600" r="0.9000" /> 
</g>
<g style="fill:#000000; fill-opacity:1.0000; stroke:none;">
<circle cx="58.4200" cy="63.5000" r="0.9000" /> 
</g>
<g style="fill:#000000; fill-opacity:1.0000; stroke:none;">
<circle cx="58.4200" cy="66.0400" r="0.9000" /> 
<path style="fill:#000000; fill-opacity:1.0000; stroke:none;fill-rule:evenodd;"
d="M 50.3500,63.9500
50.3310,64.0457
50.2768,64.1268
50.1957,64.1810
50.1000,64.2000
49.4000,64.2000
49.3043,64.1810
49.2232,64.1268
49.1690,64.0457
49.1500,63.9500
49.1500,63.0500
49.1690,62.9543
49.2232,62.8732
49.3043,62.8190
49.4000,62.8000
50.1000,62.8000
50.1957,62.8190
50.2768,62.8732
50.3310,62.9543
50.3500,63.0500
Z" /> 
<path style="fill:#000000; fill-opacity:1.0000; stroke:none;fill-rule:evenodd;"
d="M 48.3500,63.9500
48.3310,64.0457
48.2768,64.1268
48.1957,64.1810
48.1000,64.2000
47.4000,64.2000
47.3043,64.1810
47.2232,64.1268
47.1690,64.0457
47.1500,63.9500
47.1500,63.0500
47.1690,62.9543
47.2232,62.8732
47.3043,62.8190
47.4000,62.8000
48.1000,62.8000
48.1957,62.8190
48.2768,62.8732
48.3310,62.9543
48.3500,63.0500
Z" /> 
<path style="fill:#000000; fill-opacity:1.0000; stroke:none;fill-rule:evenodd;"
d="M 47.1500,65.5500
47.1690,65.4543
47.2232,65.3732
47.3043,65.3190
47.4000,65.3000
48.1000,65.3000
48.1957,65.3190
48.2768,65.3732
48.3310,65.4543
48.3500,65.5500
48.3500,66.4500
48.3310,66.5457
48.2768,66.6268
48.1957,66.6810
48.1000,66.7000
47.4000,66.7000
47.3043,66.6810
47.2232,66.6268
47.1690,66.5457
47.1500,66.4500
Z" /> 
<path style="fill:#000000; fill-opacity:1.0000; stroke:none;fill-rule:evenodd;"
d="M 49.1500,65.5500
49.1690,65.4543
49.2232,65.3732
49.3043,65.3190
49.4000,65.3000
50.1000,65.3000
50.1957,65.3190
50.2768,65.3732
50.3310,65.4543
50.3500,65.5500
50.3500,66.4500
50.3310,66.5457
50.2768,66.6268
50.1957,66.6810
50.1000,66.7000
49.4000,66.7000
49.3043,66.6810
49.2232,66.6268
49.1690,66.5457
49.1500,66.4500
Z" /> 
<path style="fill:#000000; fill-opacity:1.0000; stroke:none;fill-rule:evenodd;"
d="M 50.2625,68.4000
50.2739,68.3426
50.3064,68.2939
50.3551,68.2614
50.4125,68.2500
51.5875,68.2500
51.6449,68.2614
51.6936,68.2939
51.7261,68.3426
51.7375,68.4000
51.7375,68.7000
51.7261,68.7574
51.6936,68.8061
51.6449,68.8386
51.5875,68.8500
50.4125,68.8500
50.3551,68.8386
50.3064,68.8061
50.2739,68.7574
50.2625,68.7000
Z" /> 
<path style="fill:#000000; fill-opacity:1.0000; stroke:none;fill-rule:evenodd;"
d="M 50.2625,70.3000
50.2739,70.2426
50.3064,70.1939
50.3551,70.1614
50.4125,70.1500
51.5875,70.1500
51.6449,70.1614
51.6936,70.1939
51.7261,70.2426
51.7375,70.3000
51.7375,70.6000
51.7261,70.6574
51.6936,70.7061
51.6449,70.7386
51.5875,70.7500
50.4125,70.7500
50.3551,70.7386
50.3064,70.7061
50.2739,70.6574
50.2625,70.6000
Z" /> 
<path style="fill:#000000; fill-opacity:1.0000; stroke:none;fill-rule:evenodd;"
d="M 52.1375,69.3500
52.1489,69.2926
52.1814,69.2439
52.2301,69.2114
52.2875,69.2000
53.4625,69.2000
53.5199,69.2114
53.5686,69.2439
53.6011,69.2926
53.6125,69.3500
53.6125,69.6500
53.6011,69.7074
53.5686,69.7561
53.5199,69.7886
53.4625,69.8000
52.2875,69.8000
52.2301,69.7886
52.1814,69.7561
52.1489,69.7074
52.1375,69.6500
Z" /> 
</g>
<g style="fill:#000000; fill-opacity:1.0000; stroke:none;">
<circle cx="57.7500" cy="74.7500" r="1.0000" /> 
</g>
<g style="fill:#000000; fill-opacity:1.0000; stroke:none;">
<circle cx="57.7500" cy="71.2500" r="1.0000" /> 
</g>
<g style="fill:#FFFFFF; fill-opacity:1.0000; stroke:none;">
<circle cx="49.7500" cy="81.5000" r="0.5000" /> 
</g>
<g style="fill:#FFFFFF; fill-opacity:1.0000; stroke:none;">
<circle cx="53.2500" cy="81.5000" r="0.5000" /> 
</g>
<g style="fill:#FFFFFF; fill-opacity:1.0000; stroke:none;">
<circle cx="42.7500" cy="81.5000" r="0.5000" /> 
</g>
<g style="fill:#FFFFFF; fill-opacity:1.0000; stroke:none;">
<circle cx="46.2500" cy="81.5000" r="0.5000" /> 
</g>
<g style="fill:#FFFFFF; fill-opacity:1.0000; stroke:none;">
<circle cx="35.7500" cy="81.5000" r="0.5000" /> 
</g>
<g style="fill:#FFFFFF; fill-opacity:1.0000; stroke:none;">
<circle cx="39.2500" cy="81.5000" r="0.5000" /> 
</g>
<g style="fill:#FFFFFF; fill-opacity:1.0000; stroke:none;">
<circle cx="37.5000" cy="71.2500" r="0.5000" /> 
</g>
<g style="fill:#FFFFFF; fill-opacity:1.0000; stroke:none;">
<circle cx="37.5000" cy="74.7500" r="0.5000" /> 
</g>
<g style="fill:#FFFFFF; fill-opacity:1.0000; stroke:none;">
<circle cx="35.5600" cy="48.2600" r="0.4000" /> 
</g>
<g style="fill:#FFFFFF; fill-opacity:1.0000; stroke:none;">
<circle cx="35.5600" cy="50.8000" r="0.4000" /> 
</g>
<g style="fill:#FFFFFF; fill-opacity:1.0000; stroke:none;">
<circle cx="35.5600" cy="53.3400" r="0.4000" /> 
</g>
<g style="fill:#FFFFFF; fill-opacity:1.0000; stroke:none;">
<circle cx="35.5600" cy="55.8800" r="0.4000" /> 
</g>
<g style="fill:#FFFFFF; fill-opacity:1.0000; stroke:none;">
<circle cx="35.5600" cy="58.4200" r="0.4000" /> 
</g>
<g style="fill:#FFFFFF; fill-opacity:1.0000; stroke:none;">
<circle cx="35.5600" cy="60.9600" r="0.4000" /> 
</g>
<g style="fill:#FFFFFF; fill-opacity:1.0000; stroke:none;">
<circle cx="35.5600" cy="63.5000" r="0.4000" /> 
</g>
<g style="fill:#FFFFFF; fill-opacity:1.0000; stroke:none;">
<circle cx="35.5600" cy="66.0400" r="0.4000" /> 
</g>
<g style="fill:#FFFFFF; fill-opacity:1.0000; stroke:none;">
<circle cx="58.4200" cy="48.2600" r="0.4000" /> 
</g>
<g style="fill:#FFFFFF; fill-opacity:1.0000; stroke:none;">
<circle cx="58.4200" cy="50.8000" r="0.4000" /> 
</g>
<g style="fill:#FFFFFF; fill-opacity:1.0000; stroke:none;">
<circle cx="58.4200" cy="53.3400" r="0.4000" /> 
</g>
<g style="fill:#FFFFFF; fill-opacity:1.0000; stroke:none;">
<circle cx="58.4200" cy="55.8800" r="0.4000" /> 
</g>
<g style="fill:#FFFFFF; fill-opacity:1.0000; stroke:none;">
<circle cx="58.4200" cy="58.4200" r="0.4000" /> 
</g>
<g style="fill:#FFFFFF; fill-opacity:1.0000; stroke:none;">
<circle cx="58.4200" cy="60.9600" r="0.4000" /> 
</g>
<g style="fill:#FFFFFF; fill-opacity:1.0000; stroke:none;">
<circle cx="58.4200" cy="63.5000" r="0.4000" /> 
</g>
<g style="fill:#FFFFFF; fill-opacity:1.0000; stroke:none;">
<circle cx="58.4200" cy="66.0400" r="0.4000" /> 
</g>
<g style="fill:#FFFFFF; fill-opacity:1.0000; stroke:none;">
<circle cx="57.7500" cy="74.7500" r="0.5000" /> 
</g>
<g style="fill:#FFFFFF; fill-opacity:1.0000; stroke:none;">
<circle cx="57.7500" cy="71.2500" r="0.5000" /> 
</g> 
</svg>
