<?xml version="1.0" standalone="no"?>
 <!DOCTYPE svg PUBLIC "-//W3C//DTD SVG 1.1//EN" 
 "http://www.w3.org/Graphics/SVG/1.1/DTD/svg11.dtd"> 
<svg
  xmlns:svg="http://www.w3.org/2000/svg"
  xmlns="http://www.w3.org/2000/svg"
  xmlns:xlink="http://www.w3.org/1999/xlink"
  version="1.1"
  width="297.0022mm" height="210.0072mm" viewBox="0.0000 0.0000 297.0022 210.0072">
<title>SVG Image created as caretaker-F_Cu.svg date 2025/03/06 20:51:52 </title>
  <desc>Image generated by PCBNEW </desc>
<g style="fill:#000000; fill-opacity:1.0000;stroke:#000000; stroke-opacity:1.0000;
stroke-linecap:round; stroke-linejoin:round;"
 transform="translate(0 0) scale(1 1)">
</g>
<g style="fill:#000000; fill-opacity:1.0000; 
stroke:#000000; stroke-width:0.0212; stroke-opacity:1; 
stroke-linecap:round; stroke-linejoin:round;">
<rect x="30.256000" y="36.090000" width="38.910000" height="52.153000" rx="0.000000" />
<path style="fill:none; 
stroke:#FFFFFF; stroke-width:0.1000; stroke-opacity:1; 
stroke-linecap:round; stroke-linejoin:round;fill:none"
d="M 35.3060,41.1480
64.1160,41.1480
64.1160,83.1930
35.3060,83.1930
Z" /> 
</g>
<g style="fill:#FFFFFF; fill-opacity:1.0000; stroke:none;">
<circle cx="57.9850" cy="81.2800" r="1.0000" /> 
</g>
<g style="fill:#FFFFFF; fill-opacity:1.0000; stroke:none;">
<circle cx="60.5250" cy="81.2800" r="1.0000" /> 
<path style="fill:#FFFFFF; fill-opacity:1.0000; stroke:none;fill-rule:evenodd;"
d="M 60.8670,66.1371
60.9627,66.1561
61.0438,66.2103
61.0980,66.2914
61.1170,66.3871
61.1170,66.9121
61.0980,67.0078
61.0438,67.0889
60.9627,67.1431
60.8670,67.1621
59.9670,67.1621
59.8713,67.1431
59.7902,67.0889
59.7360,67.0078
59.7170,66.9121
59.7170,66.3871
59.7360,66.2914
59.7902,66.2103
59.8713,66.1561
59.9670,66.1371
Z" /> 
<path style="fill:#FFFFFF; fill-opacity:1.0000; stroke:none;fill-rule:evenodd;"
d="M 60.8670,67.9621
60.9627,67.9811
61.0438,68.0353
61.0980,68.1164
61.1170,68.2121
61.1170,68.7371
61.0980,68.8328
61.0438,68.9139
60.9627,68.9681
60.8670,68.9871
59.9670,68.9871
59.8713,68.9681
59.7902,68.9139
59.7360,68.8328
59.7170,68.7371
59.7170,68.2121
59.7360,68.1164
59.7902,68.0353
59.8713,67.9811
59.9670,67.9621
Z" /> 
</g>
<g style="fill:#FFFFFF; fill-opacity:1.0000; stroke:none;">
<circle cx="42.7450" cy="81.2800" r="1.0000" /> 
</g>
<g style="fill:#FFFFFF; fill-opacity:1.0000; stroke:none;">
<circle cx="45.2850" cy="81.2800" r="1.0000" /> 
</g>
<g style="fill:#FFFFFF; fill-opacity:1.0000; stroke:none;">
<circle cx="52.9050" cy="81.2800" r="1.0000" /> 
</g>
<g style="fill:#FFFFFF; fill-opacity:1.0000; stroke:none;">
<circle cx="55.4450" cy="81.2800" r="1.0000" /> 
<path style="fill:#FFFFFF; fill-opacity:1.0000; stroke:none;fill-rule:evenodd;"
d="M 36.6650,46.7200
36.6650,44.7200
38.6650,44.7200
38.6650,46.7200
Z" /> 
</g>
<g style="fill:#FFFFFF; fill-opacity:1.0000; stroke:none;">
<circle cx="37.6650" cy="48.2600" r="1.0000" /> 
</g>
<g style="fill:#FFFFFF; fill-opacity:1.0000; stroke:none;">
<circle cx="37.6650" cy="50.8000" r="1.0000" /> 
</g>
<g style="fill:#FFFFFF; fill-opacity:1.0000; stroke:none;">
<circle cx="37.6650" cy="53.3400" r="1.0000" /> 
</g>
<g style="fill:#FFFFFF; fill-opacity:1.0000; stroke:none;">
<circle cx="37.6650" cy="55.8800" r="1.0000" /> 
</g>
<g style="fill:#FFFFFF; fill-opacity:1.0000; stroke:none;">
<circle cx="37.6650" cy="58.4200" r="1.0000" /> 
</g>
<g style="fill:#FFFFFF; fill-opacity:1.0000; stroke:none;">
<circle cx="37.6650" cy="60.9600" r="1.0000" /> 
</g>
<g style="fill:#FFFFFF; fill-opacity:1.0000; stroke:none;">
<circle cx="37.6650" cy="63.5000" r="1.0000" /> 
<path style="fill:#FFFFFF; fill-opacity:1.0000; stroke:none;fill-rule:evenodd;"
d="M 59.5250,46.7200
59.5250,44.7200
61.5250,44.7200
61.5250,46.7200
Z" /> 
</g>
<g style="fill:#FFFFFF; fill-opacity:1.0000; stroke:none;">
<circle cx="60.5250" cy="48.2600" r="1.0000" /> 
</g>
<g style="fill:#FFFFFF; fill-opacity:1.0000; stroke:none;">
<circle cx="60.5250" cy="50.8000" r="1.0000" /> 
</g>
<g style="fill:#FFFFFF; fill-opacity:1.0000; stroke:none;">
<circle cx="60.5250" cy="53.3400" r="1.0000" /> 
</g>
<g style="fill:#FFFFFF; fill-opacity:1.0000; stroke:none;">
<circle cx="60.5250" cy="55.8800" r="1.0000" /> 
</g>
<g style="fill:#FFFFFF; fill-opacity:1.0000; stroke:none;">
<circle cx="60.5250" cy="58.4200" r="1.0000" /> 
</g>
<g style="fill:#FFFFFF; fill-opacity:1.0000; stroke:none;">
<circle cx="60.5250" cy="60.9600" r="1.0000" /> 
</g>
<g style="fill:#FFFFFF; fill-opacity:1.0000; stroke:none;">
<circle cx="60.5250" cy="63.5000" r="1.0000" /> 
<path style="fill:#FFFFFF; fill-opacity:1.0000; stroke:none;fill-rule:evenodd;"
d="M 53.2820,61.9160
53.3777,61.9350
53.4588,61.9892
53.5130,62.0703
53.5320,62.1660
53.5320,62.8660
53.5130,62.9617
53.4588,63.0428
53.3777,63.0970
53.2820,63.1160
52.3820,63.1160
52.2863,63.0970
52.2052,63.0428
52.1510,62.9617
52.1320,62.8660
52.1320,62.1660
52.1510,62.0703
52.2052,61.9892
52.2863,61.9350
52.3820,61.9160
Z" /> 
<path style="fill:#FFFFFF; fill-opacity:1.0000; stroke:none;fill-rule:evenodd;"
d="M 53.2820,63.9160
53.3777,63.9350
53.4588,63.9892
53.5130,64.0703
53.5320,64.1660
53.5320,64.8660
53.5130,64.9617
53.4588,65.0428
53.3777,65.0970
53.2820,65.1160
52.3820,65.1160
52.2863,65.0970
52.2052,65.0428
52.1510,64.9617
52.1320,64.8660
52.1320,64.1660
52.1510,64.0703
52.2052,63.9892
52.2863,63.9350
52.3820,63.9160
Z" /> 
</g>
<g style="fill:#FFFFFF; fill-opacity:1.0000; stroke:none;">
<circle cx="37.6650" cy="81.2800" r="1.0000" /> 
</g>
<g style="fill:#FFFFFF; fill-opacity:1.0000; stroke:none;">
<circle cx="40.2050" cy="81.2800" r="1.0000" /> 
<path style="fill:#FFFFFF; fill-opacity:1.0000; stroke:none;fill-rule:evenodd;"
d="M 54.5180,67.1140
54.5370,67.0183
54.5912,66.9372
54.6723,66.8830
54.7680,66.8640
55.4680,66.8640
55.5637,66.8830
55.6448,66.9372
55.6990,67.0183
55.7180,67.1140
55.7180,68.0140
55.6990,68.1097
55.6448,68.1908
55.5637,68.2450
55.4680,68.2640
54.7680,68.2640
54.6723,68.2450
54.5912,68.1908
54.5370,68.1097
54.5180,68.0140
Z" /> 
<path style="fill:#FFFFFF; fill-opacity:1.0000; stroke:none;fill-rule:evenodd;"
d="M 56.5180,67.1140
56.5370,67.0183
56.5912,66.9372
56.6723,66.8830
56.7680,66.8640
57.4680,66.8640
57.5637,66.8830
57.6448,66.9372
57.6990,67.0183
57.7180,67.1140
57.7180,68.0140
57.6990,68.1097
57.6448,68.1908
57.5637,68.2450
57.4680,68.2640
56.7680,68.2640
56.6723,68.2450
56.5912,68.1908
56.5370,68.1097
56.5180,68.0140
Z" /> 
</g>
<g style="fill:#FFFFFF; fill-opacity:1.0000; stroke:none;">
<circle cx="47.8250" cy="81.2800" r="1.0000" /> 
</g>
<g style="fill:#FFFFFF; fill-opacity:1.0000; stroke:none;">
<circle cx="50.3650" cy="81.2800" r="1.0000" /> 
<path style="fill:#FFFFFF; fill-opacity:1.0000; stroke:none;fill-rule:evenodd;"
d="M 59.6795,71.0360
59.6909,70.9786
59.7234,70.9299
59.7721,70.8974
59.8295,70.8860
61.0045,70.8860
61.0619,70.8974
61.1106,70.9299
61.1431,70.9786
61.1545,71.0360
61.1545,71.3360
61.1431,71.3934
61.1106,71.4421
61.0619,71.4746
61.0045,71.4860
59.8295,71.4860
59.7721,71.4746
59.7234,71.4421
59.6909,71.3934
59.6795,71.3360
Z" /> 
<path style="fill:#FFFFFF; fill-opacity:1.0000; stroke:none;fill-rule:evenodd;"
d="M 59.6795,72.9360
59.6909,72.8786
59.7234,72.8299
59.7721,72.7974
59.8295,72.7860
61.0045,72.7860
61.0619,72.7974
61.1106,72.8299
61.1431,72.8786
61.1545,72.9360
61.1545,73.2360
61.1431,73.2934
61.1106,73.3421
61.0619,73.3746
61.0045,73.3860
59.8295,73.3860
59.7721,73.3746
59.7234,73.3421
59.6909,73.2934
59.6795,73.2360
Z" /> 
<path style="fill:#FFFFFF; fill-opacity:1.0000; stroke:none;fill-rule:evenodd;"
d="M 61.5545,71.9860
61.5659,71.9286
61.5984,71.8799
61.6471,71.8474
61.7045,71.8360
62.8795,71.8360
62.9369,71.8474
62.9856,71.8799
63.0181,71.9286
63.0295,71.9860
63.0295,72.2860
63.0181,72.3434
62.9856,72.3921
62.9369,72.4246
62.8795,72.4360
61.7045,72.4360
61.6471,72.4246
61.5984,72.3921
61.5659,72.3434
61.5545,72.2860
Z" /> 
</g>
<g style="fill:none; 
stroke:#FFFFFF; stroke-width:0.5000; stroke-opacity:1; 
stroke-linecap:round; stroke-linejoin:round;">
<path d="M48.2600 50.8000
L59.7250 50.8000
" />
<path d="M45.0850 53.9750
L48.2600 50.8000
" />
<path d="M45.0850 77.1525
L45.0850 53.9750
" />
<path d="M47.8250 81.2800
L47.8250 79.8925
" />
<path d="M47.8250 79.8925
L45.0850 77.1525
" />
<path d="M46.3550 56.5150
L49.5300 53.3400
" />
<path d="M46.3550 75.8825
L46.3550 56.5150
" />
<path d="M50.3650 79.8925
L46.3550 75.8825
" />
<path d="M50.3650 81.2800
L50.3650 79.8925
" />
<path d="M49.5300 53.3400
L59.7250 53.3400
" />
<path d="M50.1650 55.8800
L59.7250 55.8800
" />
<path d="M47.6250 58.4200
L50.1650 55.8800
" />
<path d="M47.6250 74.2950
L47.6250 58.4200
" />
<path d="M52.9050 81.2800
L52.9050 79.5750
" />
<path d="M52.9050 79.5750
L47.6250 74.2950
" />
<path d="M51.4350 58.4200
L59.7250 58.4200
" />
<path d="M48.8950 72.3900
L48.8950 60.9600
" />
<path d="M55.4450 78.9400
L48.8950 72.3900
" />
<path d="M48.8950 60.9600
L51.4350 58.4200
" />
<path d="M55.4450 81.2800
L55.4450 78.9400
" />
<path d="M40.0050 61.5950
L39.3700 60.9600
" />
<path d="M40.0050 76.5175
L40.0050 61.5950
" />
<path d="M39.3700 60.9600
L37.6650 60.9600
" />
<path d="M37.6650 78.8575
L40.0050 76.5175
" />
<path d="M37.6650 81.2800
L37.6650 78.8575
" />
<path d="M41.2750 78.1050
L41.2750 59.6900
" />
<path d="M40.2050 79.1750
L41.2750 78.1050
" />
<path d="M41.2750 59.6900
L40.0050 58.4200
" />
<path d="M40.0050 58.4200
L37.6650 58.4200
" />
<path d="M40.2050 81.2800
L40.2050 79.1750
" />
<path d="M43.8150 51.4350
L43.8150 78.1050
" />
<path d="M46.9900 48.2600
L43.8150 51.4350
" />
<path d="M43.8150 78.1050
L45.2850 79.5750
" />
<path d="M62.2300 66.6750
L62.2300 49.4950
" />
<path d="M60.9950 48.2600
L46.9900 48.2600
" />
<path d="M61.3410 67.5640
L62.2300 66.6750
" />
<path d="M62.2300 49.4950
L60.9950 48.2600
" />
<path d="M45.2850 79.5750
L45.2850 81.2800
" />
<path d="M52.8670 73.1870
L57.9470 78.2670
" />
<path d="M57.9470 78.2670
L57.9470 81.2800
" />
<path d="M52.8670 67.5640
L52.8670 73.1870
" />
</g>
<g style="fill:none; 
stroke:#FFFFFF; stroke-width:0.3000; stroke-opacity:1; 
stroke-linecap:round; stroke-linejoin:round;">
<path d="M61.3410 67.5640
L57.1180 67.5640
" />
</g>
<g style="fill:none; 
stroke:#FFFFFF; stroke-width:0.5000; stroke-opacity:1; 
stroke-linecap:round; stroke-linejoin:round;">
<path d="M60.4520 71.1250
L60.4520 68.5800
" />
<path d="M60.4520 66.5800
L60.4520 63.5000
" />
<path d="M53.5020 60.9600
L52.8670 61.5950
" />
<path d="M52.8670 61.5950
L52.8670 62.7700
" />
<path d="M52.8670 64.7700
L52.8670 67.5640
" />
<path d="M55.3120 67.5640
L52.8670 67.5640
" />
<path d="M60.4520 81.2800
L60.4520 73.0250
" />
<path d="M60.5250 60.9600
L53.5020 60.9600
" />
<path d="M63.5000 72.1360
L62.2920 72.1360
" />
<path d="M61.6300 45.7200
L63.5000 47.5900
" />
<path d="M45.0850 45.7200
L61.6300 45.7200
" />
<path d="M42.7450 48.0600
L45.0850 45.7200
" />
<path d="M42.7450 81.2800
L42.7450 48.0600
" />
<path d="M63.5000 47.5900
L63.5000 72.1360
" />
<path style="fill:#FFFFFF; fill-opacity:1.0000; stroke:none;fill-rule:evenodd;"
d="M 61.9227,47.1066
61.9552,47.1137
61.9571,47.1151
61.9582,47.1154
61.9600,47.1172
61.9835,47.1348
62.7132,47.8645
62.7467,47.9259
62.7495,47.9522
62.7495,48.6538
62.7298,48.7208
62.6770,48.7666
62.6079,48.7765
62.5443,48.7475
62.5378,48.7415
62.0618,48.2655
62.0283,48.2041
62.0255,48.1778
62.0255,48.1419
61.9886,47.9086
61.9547,47.8044
61.9156,47.6840
61.9156,47.6840
61.9156,47.6840
61.8413,47.5383
61.8083,47.4736
61.7184,47.3498
61.6950,47.2840
61.7108,47.2160
61.7472,47.1757
61.7604,47.1664
61.7673,47.1638
61.8229,47.1222
61.8242,47.1213
61.8557,47.1105
61.8869,47.0988
61.8887,47.0992
61.8903,47.0986
Z" /> 
<path style="fill:#FFFFFF; fill-opacity:1.0000; stroke:none;fill-rule:evenodd;"
d="M 58.9675,46.4902
59.0133,46.5430
59.0245,46.5945
59.0245,46.7679
59.0309,46.8275
59.0812,46.9623
59.0812,46.9623
59.1675,47.0775
59.1675,47.0775
59.2827,47.1638
59.2905,47.1680
59.2886,47.1714
59.2949,47.1760
59.3177,47.1880
59.3225,47.1966
59.3304,47.2024
59.3394,47.2265
59.3520,47.2489
59.3514,47.2587
59.3549,47.2679
59.3495,47.2930
59.3480,47.3186
59.3412,47.3316
59.3402,47.3362
59.3315,47.3498
59.2527,47.4584
59.1974,47.5011
59.1524,47.5095
46.9161,47.5095
46.7711,47.5383
46.7711,47.5383
46.6345,47.5949
46.6345,47.5949
46.5936,47.6222
46.5936,47.6222
46.5116,47.6770
46.5116,47.6770
43.7072,50.4815
43.6459,50.5149
43.5762,50.5100
43.5202,50.4681
43.4958,50.4026
43.4955,50.3938
43.4955,48.4222
43.5152,48.3552
43.5318,48.3345
45.3595,46.5068
45.4209,46.4733
45.4472,46.4705
58.9005,46.4705
Z" /> 
<path style="fill:#FFFFFF; fill-opacity:1.0000; stroke:none;fill-rule:evenodd;"
d="M 59.2194,49.0302
59.2527,49.0616
59.3805,49.2375
59.5475,49.4045
59.5821,49.4297
59.6248,49.4850
59.6308,49.5546
59.5982,49.6164
59.5821,49.6303
59.5644,49.6432
59.5475,49.6555
59.3805,49.8225
59.3805,49.8225
59.3805,49.8225
59.2527,49.9984
59.1974,50.0411
59.1524,50.0495
48.1861,50.0495
48.0411,50.0783
48.0411,50.0783
47.9045,50.1349
47.9045,50.1349
47.8636,50.1622
47.8636,50.1622
47.7816,50.2170
47.7816,50.2170
44.7772,53.2215
44.7159,53.2549
44.6462,53.2500
44.5902,53.2081
44.5658,53.1426
44.5655,53.1338
44.5655,51.7972
44.5852,51.7302
44.6018,51.7095
47.2645,49.0468
47.3259,49.0133
47.3522,49.0105
59.1524,49.0105
Z" /> 
<path style="fill:#FFFFFF; fill-opacity:1.0000; stroke:none;fill-rule:evenodd;"
d="M 59.1576,51.5520
59.1630,51.5510
59.1908,51.5618
59.2194,51.5702
59.2243,51.5748
59.2281,51.5763
59.2527,51.6016
59.3805,51.7775
59.5475,51.9445
59.5821,51.9697
59.6248,52.0250
59.6308,52.0946
59.5982,52.1564
59.5821,52.1703
59.5705,52.1788
59.5475,52.1955
59.3805,52.3625
59.3805,52.3625
59.3805,52.3625
59.2527,52.5384
59.1974,52.5811
59.1524,52.5895
49.4561,52.5895
49.3111,52.6183
49.3111,52.6183
49.1745,52.6749
49.1745,52.6749
49.1336,52.7022
49.1336,52.7022
49.0516,52.7570
49.0516,52.7570
46.0472,55.7615
45.9859,55.7949
45.9162,55.7900
45.8602,55.7481
45.8358,55.6826
45.8355,55.6738
45.8355,54.3372
45.8552,54.2702
45.8718,54.2495
48.5345,51.5868
48.5959,51.5533
48.6222,51.5505
59.1524,51.5505
Z" /> 
<path style="fill:#FFFFFF; fill-opacity:1.0000; stroke:none;fill-rule:evenodd;"
d="M 59.2194,54.1102
59.2527,54.1416
59.3805,54.3175
59.5475,54.4845
59.5821,54.5097
59.6248,54.5650
59.6308,54.6346
59.5982,54.6964
59.5821,54.7103
59.5705,54.7188
59.5475,54.7355
59.3805,54.9025
59.3805,54.9025
59.3805,54.9025
59.2527,55.0784
59.1974,55.1211
59.1524,55.1295
50.0911,55.1295
49.9461,55.1583
49.9461,55.1583
49.8095,55.2149
49.8095,55.2149
49.6866,55.2970
49.6866,55.2971
47.3172,57.6665
47.2559,57.6999
47.1862,57.6950
47.1302,57.6531
47.1058,57.5876
47.1055,57.5788
47.1055,56.8772
47.1252,56.8102
47.1418,56.7895
49.8045,54.1268
49.8659,54.0933
49.8922,54.0905
59.1524,54.0905
Z" /> 
<path style="fill:#FFFFFF; fill-opacity:1.0000; stroke:none;fill-rule:evenodd;"
d="M 59.1576,56.6320
59.1630,56.6310
59.1908,56.6418
59.2194,56.6502
59.2243,56.6548
59.2281,56.6563
59.2527,56.6816
59.3805,56.8575
59.5475,57.0245
59.5821,57.0497
59.6248,57.1050
59.6308,57.1746
59.5982,57.2364
59.5821,57.2503
59.5705,57.2588
59.5475,57.2755
59.3805,57.4425
59.3805,57.4425
59.3805,57.4425
59.2527,57.6184
59.1974,57.6611
59.1524,57.6695
51.3611,57.6695
51.2161,57.6983
51.2161,57.6983
51.0795,57.7549
51.0795,57.7549
50.9566,57.8370
50.9566,57.8371
48.5872,60.2065
48.5259,60.2399
48.4562,60.2350
48.4002,60.1931
48.3758,60.1276
48.3755,60.1188
48.3755,58.7822
48.3952,58.7152
48.4118,58.6945
50.4395,56.6668
50.5009,56.6333
50.5272,56.6305
59.1524,56.6305
Z" /> 
<path style="fill:#FFFFFF; fill-opacity:1.0000; stroke:none;fill-rule:evenodd;"
d="M 39.7098,59.1902
39.7305,59.2068
40.4882,59.9645
40.5217,60.0259
40.5245,60.0522
40.5245,60.7538
40.5048,60.8208
40.4520,60.8666
40.3829,60.8765
40.3193,60.8475
40.3128,60.8415
39.8484,60.3770
39.8484,60.3770
39.7991,60.3441
39.7664,60.3222
39.7255,60.2949
39.7255,60.2949
39.7255,60.2949
39.7255,60.2949
39.5889,60.2383
39.5889,60.2383
39.4439,60.2095
39.4439,60.2095
39.0376,60.2095
38.9706,60.1898
38.9373,60.1584
38.8095,59.9825
38.6425,59.8155
38.6079,59.7903
38.5652,59.7350
38.5592,59.6654
38.5918,59.6036
38.6079,59.5897
38.6425,59.5645
38.8095,59.3975
38.9373,59.2216
38.9926,59.1789
39.0376,59.1705
39.6428,59.1705
Z" /> 
<path style="fill:#FFFFFF; fill-opacity:1.0000; stroke:none;fill-rule:evenodd;"
d="M 39.1115,61.7629
39.1127,61.7641
39.2182,61.8695
39.2517,61.9309
39.2545,61.9572
39.2545,62.7979
39.2348,62.8650
39.1820,62.9107
39.1129,62.9207
39.0493,62.8916
39.0200,62.8542
38.9483,62.7136
38.8095,62.5225
38.6425,62.3555
38.6079,62.3303
38.5652,62.2750
38.5592,62.2054
38.5918,62.1436
38.6079,62.1297
38.6425,62.1045
38.8095,61.9375
38.9247,61.7789
38.9801,61.7362
39.0497,61.7303
Z" /> 
<path style="fill:#FFFFFF; fill-opacity:1.0000; stroke:none;fill-rule:evenodd;"
d="M 61.4326,64.8030
61.4729,64.8601
61.4795,64.9001
61.4795,65.6609
61.4598,65.7280
61.4070,65.7737
61.3379,65.7837
61.2904,65.7665
61.2614,65.7486
61.2147,65.6966
61.2025,65.6430
61.2025,64.9148
61.2068,64.9002
61.2061,64.8850
61.2164,64.8674
61.2222,64.8478
61.2342,64.8369
61.2414,64.8247
61.2702,64.8043
61.2992,64.7896
61.3679,64.7767
Z" /> 
<path style="fill:#FFFFFF; fill-opacity:1.0000; stroke:none;fill-rule:evenodd;"
d="M 59.1576,61.7120
59.1630,61.7110
59.1908,61.7218
59.2194,61.7302
59.2243,61.7348
59.2281,61.7363
59.2527,61.7616
59.3805,61.9375
59.5475,62.1045
59.5821,62.1297
59.6248,62.1850
59.6308,62.2546
59.5982,62.3164
59.5821,62.3303
59.5705,62.3388
59.5475,62.3555
59.3805,62.5225
59.3805,62.5225
59.3805,62.5225
59.3209,62.6045
59.2417,62.7136
59.1344,62.9240
59.0614,63.1486
59.0245,63.3819
59.0245,63.6181
59.0614,63.8514
59.1344,64.0760
59.1749,64.1554
59.2417,64.2864
59.3805,64.4775
59.5475,64.6445
59.6504,64.7193
59.6931,64.7746
59.7015,64.8196
59.7015,65.5999
59.6818,65.6669
59.6426,65.7054
59.6060,65.7280
59.4983,65.7944
59.3743,65.9184
59.2822,66.0678
59.2822,66.0678
59.2270,66.2343
59.2270,66.2343
59.2270,66.2343
59.2165,66.3371
59.2165,66.3371
59.2165,66.6150
59.2165,66.7895
59.1968,66.8565
59.1440,66.9023
59.0925,66.9135
58.2817,66.9135
58.2147,66.8938
58.1689,66.8410
58.1640,66.8285
58.1550,66.8013
58.1528,66.7947
58.0607,66.6453
57.9367,66.5213
57.7873,66.4292
57.6208,66.3740
57.6208,66.3740
57.5180,66.3635
56.7180,66.3635
56.7180,66.3635
56.6152,66.3740
56.6152,66.3740
56.4487,66.4292
56.4487,66.4292
56.2993,66.5213
56.2057,66.6150
56.1444,66.6484
56.0747,66.6435
56.0303,66.6150
55.9367,66.5213
55.9367,66.5213
55.7873,66.4292
55.6208,66.3740
55.6208,66.3740
55.5180,66.3635
54.7180,66.3635
54.7180,66.3635
54.6152,66.3740
54.6152,66.3740
54.4487,66.4292
54.4487,66.4292
54.2993,66.5213
54.1753,66.6453
54.1753,66.6453
54.1163,66.7410
54.1079,66.7546
54.0560,66.8013
54.0024,66.8135
53.7415,66.8135
53.6745,66.7938
53.6287,66.7410
53.6175,66.6895
53.6175,65.6100
53.6372,65.5430
53.6764,65.5045
53.7507,65.4587
53.8747,65.3347
53.9668,65.1853
54.0220,65.0188
54.0325,64.9160
54.0325,64.1160
54.0309,64.1007
54.0220,64.0132
54.0220,64.0132
53.9668,63.8467
53.8747,63.6973
53.7810,63.6037
53.7476,63.5424
53.7525,63.4727
53.7810,63.4283
53.8275,63.3819
53.8747,63.3347
53.9668,63.1853
54.0220,63.0188
54.0325,62.9160
54.0325,62.1160
54.0220,62.0132
53.9757,61.8735
53.9733,61.8037
54.0090,61.7436
54.0716,61.7124
54.0934,61.7105
59.1524,61.7105
Z" /> 
<path style="fill:#FFFFFF; fill-opacity:1.0000; stroke:none;fill-rule:evenodd;"
d="M 62.6688,67.4000
62.7248,67.4419
62.7492,67.5074
62.7495,67.5162
62.7495,71.2115
62.7298,71.2785
62.6770,71.3243
62.6255,71.3355
61.7790,71.3355
61.7120,71.3158
61.6662,71.2630
61.6550,71.2115
61.6550,70.9703
61.6550,70.9703
61.6521,70.9334
61.6521,70.9334
61.6062,70.7756
61.6062,70.7756
61.6062,70.7756
61.5226,70.6341
61.5226,70.6341
61.5226,70.6341
61.4064,70.5179
61.4064,70.5179
61.2634,70.4334
61.2157,70.3823
61.2025,70.3266
61.2025,69.4811
61.2222,69.4141
61.2614,69.3756
61.3357,69.3298
61.4597,69.2058
61.5518,69.0564
61.6070,68.8899
61.6175,68.7871
61.6175,68.3447
61.6372,68.2776
61.6900,68.2319
61.6940,68.2301
61.6965,68.2291
61.8194,68.1470
62.5378,67.4285
62.5991,67.3951
Z" /> 
<path style="fill:#FFFFFF; fill-opacity:1.0000; stroke:none;fill-rule:evenodd;"
d="M 59.1595,68.2342
59.2053,68.2870
59.2165,68.3385
59.2165,68.7871
59.2165,68.7871
59.2270,68.8899
59.2270,68.8899
59.2822,69.0564
59.2822,69.0564
59.3743,69.2058
59.4983,69.3298
59.6426,69.4188
59.6893,69.4707
59.7015,69.5243
59.7015,70.3027
59.6818,70.3697
59.6290,70.4155
59.6121,70.4218
59.5691,70.4343
59.4276,70.5179
59.4276,70.5179
59.3114,70.6341
59.3114,70.6341
59.2278,70.7756
59.2278,70.7756
59.1819,70.9334
59.1819,70.9334
59.1790,70.9703
59.1790,71.4017
59.1819,71.4386
59.1819,71.4386
59.2278,71.5964
59.2278,71.5964
59.3114,71.7379
59.3114,71.7379
59.4276,71.8541
59.4276,71.8541
59.4276,71.8541
59.5691,71.9377
59.6107,71.9498
59.7269,71.9836
59.7269,71.9836
59.7269,71.9836
59.7638,71.9865
60.9300,71.9865
60.9387,71.9890
60.9476,71.9878
60.9717,71.9987
60.9970,72.0062
61.0030,72.0130
61.0112,72.0168
61.0255,72.0390
61.0428,72.0590
61.0451,72.0695
61.0490,72.0756
61.0540,72.1105
61.0540,72.1615
61.0343,72.2285
60.9815,72.2743
60.9300,72.2855
60.5934,72.2855
60.5692,72.2831
60.5259,72.2745
60.5259,72.2745
60.3781,72.2745
60.3781,72.2745
60.3348,72.2831
60.3106,72.2855
59.7638,72.2855
59.7269,72.2884
59.7269,72.2884
59.5691,72.3343
59.5691,72.3343
59.4276,72.4179
59.4276,72.4179
59.3114,72.5341
59.3114,72.5341
59.2278,72.6756
59.2278,72.6756
59.1819,72.8334
59.1819,72.8334
59.1790,72.8703
59.1790,73.3017
59.1819,73.3386
59.1819,73.3386
59.2278,73.4964
59.2278,73.4964
59.3114,73.6379
59.3114,73.6379
59.4276,73.7541
59.4276,73.7541
59.4276,73.7541
59.5691,73.8377
59.6121,73.8502
59.6710,73.8878
59.7002,73.9513
59.7015,73.9693
59.7015,79.9604
59.6818,80.0274
59.6504,80.0607
59.5475,80.1355
59.5475,80.1355
59.3805,80.3025
59.3553,80.3371
59.3000,80.3798
59.2304,80.3858
59.1686,80.3532
59.1547,80.3371
59.1295,80.3025
58.9625,80.1355
58.7714,79.9967
58.7714,79.9967
58.7652,79.9935
58.7144,79.9455
58.6975,79.8830
58.6975,78.1931
58.6687,78.0481
58.6687,78.0481
58.6687,78.0481
58.6121,77.9115
58.5792,77.8623
58.5792,77.8623
58.5300,77.7886
58.5300,77.7886
53.6538,72.9125
53.6203,72.8511
53.6175,72.8248
53.6175,68.4385
53.6372,68.3715
53.6900,68.3257
53.7415,68.3145
54.0024,68.3145
54.0694,68.3342
54.1079,68.3734
54.1753,68.4827
54.2993,68.6067
54.4487,68.6988
54.6152,68.7540
54.7180,68.7645
55.5180,68.7645
55.5180,68.7645
55.5180,68.7645
55.5743,68.7587
55.6208,68.7540
55.7873,68.6988
55.9367,68.6067
56.0303,68.5130
56.0916,68.4796
56.1613,68.4845
56.2057,68.5130
56.2993,68.6067
56.4487,68.6988
56.6152,68.7540
56.7180,68.7645
57.5180,68.7645
57.5180,68.7645
57.5180,68.7645
57.5743,68.7587
57.6208,68.7540
57.7873,68.6988
57.9367,68.6067
58.0607,68.4827
58.1528,68.3333
58.1640,68.2995
58.2038,68.2420
58.2683,68.2152
58.2817,68.2145
59.0925,68.2145
Z" /> 
<path style="fill:#FFFFFF; fill-opacity:1.0000; stroke:none;fill-rule:evenodd;"
d="M 59.1576,59.1720
59.1630,59.1710
59.1908,59.1818
59.2194,59.1902
59.2243,59.1948
59.2281,59.1963
59.2527,59.2216
59.3805,59.3975
59.5475,59.5645
59.5821,59.5897
59.6248,59.6450
59.6308,59.7146
59.5982,59.7764
59.5821,59.7903
59.5705,59.7988
59.5475,59.8155
59.3805,59.9825
59.3805,59.9825
59.3805,59.9825
59.2527,60.1584
59.1974,60.2011
59.1524,60.2095
53.4281,60.2095
53.3992,60.2152
53.3992,60.2152
53.2831,60.2383
53.2831,60.2383
53.2031,60.2715
53.2031,60.2715
53.1465,60.2949
53.1056,60.3222
53.0236,60.3770
52.2840,61.1166
52.2632,61.1479
52.2424,61.1789
52.2019,61.2395
52.2019,61.2395
52.1453,61.3761
52.1453,61.3761
52.1429,61.3885
52.1105,61.4504
52.0686,61.4768
52.0692,61.4781
52.0627,61.4812
51.9133,61.5733
51.7893,61.6973
51.6972,61.8467
51.6972,61.8467
51.6420,62.0132
51.6420,62.0132
51.6420,62.0132
51.6315,62.1160
51.6315,62.9160
51.6315,62.9160
51.6420,63.0188
51.6420,63.0188
51.6972,63.1853
51.6972,63.1853
51.7893,63.3347
51.8830,63.4283
51.9164,63.4896
51.9115,63.5593
51.8830,63.6037
51.7893,63.6973
51.6972,63.8467
51.6972,63.8467
51.6420,64.0132
51.6420,64.0132
51.6420,64.0132
51.6315,64.1160
51.6315,64.9160
51.6315,64.9160
51.6420,65.0188
51.6420,65.0188
51.6972,65.1853
51.6972,65.1853
51.7893,65.3347
51.9133,65.4587
52.0576,65.5477
52.1043,65.5996
52.1165,65.6532
52.1165,67.4901
52.1165,73.2609
52.1165,73.2609
52.1165,73.2609
52.1453,73.4059
52.1453,73.4059
52.2019,73.5425
52.2348,73.5917
52.2348,73.5917
52.2840,73.6654
52.2841,73.6654
57.1602,78.5415
57.1937,78.6029
57.1965,78.6292
57.1965,79.9350
57.1768,80.0020
57.1454,80.0353
57.0075,80.1355
57.0075,80.1355
56.8405,80.3025
56.8153,80.3371
56.7600,80.3798
56.6904,80.3858
56.6286,80.3532
56.6147,80.3371
56.5895,80.3025
56.4225,80.1355
56.2767,80.0296
56.2466,80.0077
56.2039,79.9524
56.1955,79.9074
56.1955,78.8661
56.1667,78.7211
56.1667,78.7211
56.1667,78.7211
56.1565,78.6966
56.1101,78.5845
56.1101,78.5845
56.1094,78.5834
56.0772,78.5353
56.0550,78.5020
56.0280,78.4616
56.0280,78.4616
49.6818,72.1155
49.6483,72.0541
49.6455,72.0278
49.6455,61.3222
49.6652,61.2552
49.6818,61.2345
51.7095,59.2068
51.7709,59.1733
51.7972,59.1705
59.1524,59.1705
Z" /> 
<path style="fill:#FFFFFF; fill-opacity:1.0000; stroke:none;fill-rule:evenodd;"
d="M 48.5807,73.1375
48.5872,73.1435
54.6582,79.2145
54.6917,79.2759
54.6945,79.3022
54.6945,79.9074
54.6748,79.9744
54.6434,80.0077
54.4675,80.1355
54.3005,80.3025
54.2753,80.3371
54.2200,80.3798
54.1504,80.3858
54.0886,80.3532
54.0747,80.3371
54.0495,80.3025
53.8825,80.1355
53.7367,80.0296
53.7066,80.0077
53.6639,79.9524
53.6555,79.9074
53.6555,79.5011
53.6555,79.5011
53.6434,79.4405
53.6267,79.3561
53.5823,79.2489
53.5701,79.2195
53.5701,79.2195
53.5701,79.2195
53.4910,79.1011
53.4910,79.1011
53.4880,79.0966
48.4118,74.0205
48.3783,73.9591
48.3755,73.9328
48.3755,73.2312
48.3952,73.1642
48.4480,73.1184
48.5171,73.1085
Z" /> 
<path style="fill:#FFFFFF; fill-opacity:1.0000; stroke:none;fill-rule:evenodd;"
d="M 47.3107,75.0425
47.3172,75.0485
52.1009,79.8323
52.1344,79.8936
52.1294,79.9633
52.0875,80.0192
52.0861,80.0203
51.9275,80.1355
51.9275,80.1355
51.9275,80.1355
51.7605,80.3025
51.7353,80.3371
51.6800,80.3798
51.6104,80.3858
51.5486,80.3532
51.5347,80.3371
51.5095,80.3025
51.3425,80.1355
51.1967,80.0296
51.1666,80.0077
51.1239,79.9524
51.1155,79.9074
51.1155,79.8186
51.0867,79.6736
51.0867,79.6736
51.0867,79.6736
51.0302,79.5372
51.0301,79.5370
51.0301,79.5370
50.9480,79.4141
50.9037,79.3698
50.8434,79.3095
47.1418,75.6080
47.1083,75.5466
47.1055,75.5203
47.1055,75.1362
47.1252,75.0692
47.1780,75.0234
47.2471,75.0135
Z" /> 
<path style="fill:#FFFFFF; fill-opacity:1.0000; stroke:none;fill-rule:evenodd;"
d="M 46.0407,76.6300
46.0472,76.6360
49.3794,79.9682
49.4129,80.0296
49.4079,80.0993
49.3794,80.1436
49.2205,80.3025
49.2205,80.3025
49.1953,80.3371
49.1400,80.3798
49.0704,80.3858
49.0086,80.3532
48.9947,80.3371
48.9695,80.3025
48.8025,80.1355
48.6567,80.0296
48.6266,80.0077
48.5839,79.9524
48.5755,79.9074
48.5755,79.8186
48.5467,79.6736
48.5467,79.6736
48.5467,79.6736
48.4902,79.5372
48.4901,79.5370
48.4901,79.5370
48.4080,79.4141
48.3637,79.3698
48.3034,79.3095
45.8718,76.8780
45.8571,76.8510
45.8405,76.8252
45.8396,76.8190
45.8383,76.8166
45.8355,76.7903
45.8355,76.7237
45.8552,76.6567
45.9080,76.6109
45.9771,76.6010
Z" /> 
<path style="fill:#FFFFFF; fill-opacity:1.0000; stroke:none;fill-rule:evenodd;"
d="M 46.2146,79.3497
46.2409,79.3698
46.8394,79.9682
46.8729,80.0296
46.8679,80.0993
46.8394,80.1436
46.6805,80.3025
46.6805,80.3025
46.6553,80.3371
46.6000,80.3798
46.5304,80.3858
46.4686,80.3532
46.4547,80.3371
46.4295,80.3025
46.2625,80.1355
46.1167,80.0296
46.0866,80.0077
46.0439,79.9524
46.0355,79.9074
46.0355,79.5011
46.0355,79.5011
46.0316,79.4817
46.0379,79.4121
46.0807,79.3569
46.1466,79.3337
Z" /> 
<path style="fill:#FFFFFF; fill-opacity:1.0000; stroke:none;fill-rule:evenodd;"
d="M 43.7007,79.0525
43.7072,79.0585
44.4809,79.8323
44.5144,79.8936
44.5094,79.9633
44.4675,80.0192
44.4661,80.0203
44.3075,80.1355
44.1405,80.3025
44.1153,80.3371
44.0600,80.3798
43.9904,80.3858
43.9286,80.3532
43.9147,80.3371
43.8895,80.3025
43.7225,80.1355
43.5767,80.0296
43.5466,80.0077
43.5039,79.9524
43.4955,79.9074
43.4955,79.1462
43.5152,79.0792
43.5680,79.0334
43.6371,79.0235
Z" /> 
<path style="fill:#FFFFFF; fill-opacity:1.0000; stroke:none;fill-rule:evenodd;"
d="M 41.9138,78.6300
41.9698,78.6719
41.9942,78.7374
41.9945,78.7462
41.9945,79.9074
41.9748,79.9744
41.9434,80.0077
41.7675,80.1355
41.6005,80.3025
41.5753,80.3371
41.5200,80.3798
41.4504,80.3858
41.3886,80.3532
41.3747,80.3371
41.3495,80.3025
41.1825,80.1355
41.0367,80.0296
41.0066,80.0077
40.9639,79.9524
40.9555,79.9074
40.9555,79.5372
40.9752,79.4702
40.9918,79.4495
41.7828,78.6585
41.8441,78.6251
Z" /> 
<path style="fill:#FFFFFF; fill-opacity:1.0000; stroke:none;fill-rule:evenodd;"
d="M 40.4438,77.2425
40.4998,77.2844
40.5242,77.3499
40.5245,77.3587
40.5245,77.7428
40.5048,77.8098
40.4882,77.8304
39.6221,78.6966
39.6221,78.6966
39.6220,78.6966
39.5729,78.7701
39.5639,78.7836
39.5399,78.8195
39.5399,78.8195
39.4833,78.9561
39.4833,78.9561
39.4545,79.1011
39.4545,79.9074
39.4348,79.9744
39.4034,80.0077
39.2275,80.1355
39.0605,80.3025
39.0353,80.3371
38.9800,80.3798
38.9104,80.3858
38.8486,80.3532
38.8347,80.3371
38.8095,80.3025
38.6425,80.1355
38.4967,80.0296
38.4666,80.0077
38.4239,79.9524
38.4155,79.9074
38.4155,79.2197
38.4352,79.1527
38.4518,79.1320
40.3128,77.2710
40.3741,77.2376
Z" /> 
<path style="fill:#FFFFFF; fill-opacity:1.0000; stroke:none;fill-rule:evenodd;"
d="M 63.5085,72.9062
63.5543,72.9590
63.5655,73.0105
63.5655,82.5185
63.5458,82.5855
63.4930,82.6313
63.4415,82.6425
61.5834,82.6425
61.5164,82.6228
61.4706,82.5700
61.4607,82.5009
61.4897,82.4373
61.4991,82.4280
61.4991,82.4280
61.5025,82.4245
61.6695,82.2575
61.8083,82.0664
61.9156,81.8560
61.9886,81.6314
62.0255,81.3981
62.0255,81.1619
61.9886,80.9286
61.9156,80.7040
61.8083,80.4936
61.7950,80.4752
61.6695,80.3025
61.5025,80.1355
61.3114,79.9967
61.3114,79.9967
61.3114,79.9967
61.2702,79.9756
61.2194,79.9277
61.2025,79.8652
61.2025,73.9454
61.2222,73.8783
61.2634,73.8386
61.2649,73.8377
61.2649,73.8377
61.4064,73.7541
61.5226,73.6379
61.6062,73.4964
61.6521,73.3386
61.6550,73.3017
61.6550,73.0605
61.6747,72.9935
61.7275,72.9477
61.7790,72.9365
62.9452,72.9365
62.9452,72.9365
62.9821,72.9336
62.9821,72.9336
62.9821,72.9336
63.1272,72.8914
63.1618,72.8865
63.4261,72.8865
63.4415,72.8865
Z" /> 
<path style="fill:#FFFFFF; fill-opacity:1.0000; stroke:none;fill-rule:evenodd;"
d="M 59.3414,82.2068
59.3553,82.2229
59.3805,82.2575
59.3805,82.2575
59.5509,82.4280
59.5501,82.4288
59.5853,82.4827
59.5858,82.5526
59.5485,82.6116
59.4851,82.6411
59.4666,82.6425
59.0434,82.6425
58.9764,82.6228
58.9306,82.5700
58.9207,82.5009
58.9497,82.4373
58.9591,82.4280
58.9591,82.4280
58.9625,82.4245
59.1295,82.2575
59.1547,82.2229
59.2100,82.1802
59.2796,82.1742
Z" /> 
<path style="fill:#FFFFFF; fill-opacity:1.0000; stroke:none;fill-rule:evenodd;"
d="M 56.8014,82.2068
56.8153,82.2229
56.8405,82.2575
56.8405,82.2575
57.0109,82.4280
57.0101,82.4288
57.0453,82.4827
57.0458,82.5526
57.0085,82.6116
56.9451,82.6411
56.9266,82.6425
56.5034,82.6425
56.4364,82.6228
56.3906,82.5700
56.3807,82.5009
56.4097,82.4373
56.4191,82.4280
56.4191,82.4280
56.4225,82.4245
56.5895,82.2575
56.6147,82.2229
56.6700,82.1802
56.7396,82.1742
Z" /> 
<path style="fill:#FFFFFF; fill-opacity:1.0000; stroke:none;fill-rule:evenodd;"
d="M 54.2614,82.2068
54.2753,82.2229
54.3005,82.2575
54.3005,82.2575
54.4709,82.4280
54.4701,82.4288
54.5053,82.4827
54.5058,82.5526
54.4685,82.6116
54.4051,82.6411
54.3866,82.6425
53.9634,82.6425
53.8964,82.6228
53.8506,82.5700
53.8407,82.5009
53.8697,82.4373
53.8791,82.4280
53.8791,82.4280
53.8825,82.4245
54.0495,82.2575
54.0747,82.2229
54.1300,82.1802
54.1996,82.1742
Z" /> 
<path style="fill:#FFFFFF; fill-opacity:1.0000; stroke:none;fill-rule:evenodd;"
d="M 51.7214,82.2068
51.7353,82.2229
51.7605,82.2575
51.7605,82.2575
51.9309,82.4280
51.9301,82.4288
51.9653,82.4827
51.9658,82.5526
51.9285,82.6116
51.8651,82.6411
51.8466,82.6425
51.4234,82.6425
51.3564,82.6228
51.3106,82.5700
51.3007,82.5009
51.3297,82.4373
51.3391,82.4280
51.3391,82.4280
51.3425,82.4245
51.5095,82.2575
51.5347,82.2229
51.5900,82.1802
51.6596,82.1742
Z" /> 
<path style="fill:#FFFFFF; fill-opacity:1.0000; stroke:none;fill-rule:evenodd;"
d="M 49.1814,82.2068
49.1953,82.2229
49.2205,82.2575
49.2205,82.2575
49.3909,82.4280
49.3901,82.4288
49.4253,82.4827
49.4258,82.5526
49.3885,82.6116
49.3251,82.6411
49.3066,82.6425
48.8834,82.6425
48.8164,82.6228
48.7706,82.5700
48.7607,82.5009
48.7897,82.4373
48.7991,82.4280
48.7991,82.4280
48.8025,82.4245
48.9695,82.2575
48.9947,82.2229
49.0500,82.1802
49.1196,82.1742
Z" /> 
<path style="fill:#FFFFFF; fill-opacity:1.0000; stroke:none;fill-rule:evenodd;"
d="M 46.6414,82.2068
46.6553,82.2229
46.6805,82.2575
46.6805,82.2575
46.8509,82.4280
46.8501,82.4288
46.8853,82.4827
46.8858,82.5526
46.8485,82.6116
46.7851,82.6411
46.7666,82.6425
46.3434,82.6425
46.2764,82.6228
46.2306,82.5700
46.2207,82.5009
46.2497,82.4373
46.2591,82.4280
46.2591,82.4280
46.2625,82.4245
46.4295,82.2575
46.4547,82.2229
46.5100,82.1802
46.5796,82.1742
Z" /> 
<path style="fill:#FFFFFF; fill-opacity:1.0000; stroke:none;fill-rule:evenodd;"
d="M 44.1014,82.2068
44.1153,82.2229
44.1405,82.2575
44.1405,82.2575
44.3109,82.4280
44.3101,82.4288
44.3453,82.4827
44.3458,82.5526
44.3085,82.6116
44.2451,82.6411
44.2266,82.6425
43.8034,82.6425
43.7364,82.6228
43.6906,82.5700
43.6807,82.5009
43.7097,82.4373
43.7191,82.4280
43.7191,82.4280
43.7225,82.4245
43.8895,82.2575
43.9147,82.2229
43.9700,82.1802
44.0396,82.1742
Z" /> 
<path style="fill:#FFFFFF; fill-opacity:1.0000; stroke:none;fill-rule:evenodd;"
d="M 41.5614,82.2068
41.5753,82.2229
41.6005,82.2575
41.6005,82.2575
41.7709,82.4280
41.7701,82.4288
41.8053,82.4827
41.8058,82.5526
41.7685,82.6116
41.7051,82.6411
41.6866,82.6425
41.2634,82.6425
41.1964,82.6228
41.1506,82.5700
41.1407,82.5009
41.1697,82.4373
41.1791,82.4280
41.1791,82.4280
41.1825,82.4245
41.3495,82.2575
41.3747,82.2229
41.4300,82.1802
41.4996,82.1742
Z" /> 
<path style="fill:#FFFFFF; fill-opacity:1.0000; stroke:none;fill-rule:evenodd;"
d="M 39.0214,82.2068
39.0353,82.2229
39.0605,82.2575
39.0605,82.2575
39.2309,82.4280
39.2301,82.4288
39.2653,82.4827
39.2658,82.5526
39.2285,82.6116
39.1651,82.6411
39.1466,82.6425
38.7234,82.6425
38.6564,82.6228
38.6106,82.5700
38.6007,82.5009
38.6297,82.4373
38.6391,82.4280
38.6391,82.4280
38.6425,82.4245
38.8095,82.2575
38.8347,82.2229
38.8900,82.1802
38.9596,82.1742
Z" /> 
<path style="fill:#FFFFFF; fill-opacity:1.0000; stroke:none;fill-rule:evenodd;"
d="M 63.5085,41.7182
63.5543,41.7710
63.5655,41.8225
63.5655,46.2948
63.5458,46.3618
63.4930,46.4076
63.4239,46.4175
63.3603,46.3885
63.3538,46.3825
62.1084,45.1370
62.0806,45.1185
62.0358,45.0649
62.0255,45.0154
62.0255,44.6721
62.0255,44.6721
62.0255,44.6721
62.0191,44.6125
61.9688,44.4777
61.9688,44.4777
61.9688,44.4777
61.8825,44.3625
61.8825,44.3625
61.7673,44.2762
61.7673,44.2762
61.6325,44.2259
61.6325,44.2259
61.5729,44.2195
61.5729,44.2195
61.5729,44.2195
61.5729,44.2195
59.4771,44.2195
59.4771,44.2195
59.4175,44.2259
59.2827,44.2762
59.2827,44.2762
59.1675,44.3625
59.1675,44.3625
59.0812,44.4777
59.0812,44.4777
59.0309,44.6125
59.0245,44.6721
59.0245,44.6721
59.0245,44.6721
59.0245,44.8455
59.0048,44.9125
58.9520,44.9583
58.9005,44.9695
45.0111,44.9695
44.9822,44.9752
44.9822,44.9752
44.8661,44.9983
44.8661,44.9983
44.7861,45.0315
44.7861,45.0315
44.7295,45.0549
44.6886,45.0822
44.6886,45.0822
44.6066,45.1370
44.6066,45.1370
42.1620,47.5816
42.1620,47.5816
42.1349,47.6222
42.1349,47.6222
42.1073,47.6635
42.0799,47.7045
42.0233,47.8411
42.0233,47.8411
41.9945,47.9861
41.9945,59.0488
41.9883,59.0700
41.9867,59.0921
41.9786,59.1029
41.9748,59.1158
41.9581,59.1303
41.9448,59.1480
41.9322,59.1527
41.9220,59.1616
41.9001,59.1647
41.8793,59.1725
41.8662,59.1696
41.8529,59.1715
41.8327,59.1623
41.8111,59.1576
41.7933,59.1443
41.7893,59.1425
41.7828,59.1365
41.7767,59.1303
41.7534,59.1070
41.6424,58.9960
40.4834,57.8370
40.4834,57.8370
40.4341,57.8041
40.4014,57.7822
40.3605,57.7549
40.3605,57.7549
40.3605,57.7549
40.3605,57.7549
40.2239,57.6983
40.2239,57.6983
40.0789,57.6695
40.0789,57.6695
39.0376,57.6695
38.9706,57.6498
38.9373,57.6184
38.8095,57.4425
38.6425,57.2755
38.6079,57.2503
38.5652,57.1950
38.5592,57.1254
38.5918,57.0636
38.6079,57.0497
38.6425,57.0245
38.8095,56.8575
38.9483,56.6664
39.0556,56.4560
39.1286,56.2314
39.1655,55.9981
39.1655,55.7619
39.1286,55.5286
39.0556,55.3040
38.9813,55.1583
38.9483,55.0936
38.8095,54.9025
38.6425,54.7355
38.6079,54.7103
38.5652,54.6550
38.5592,54.5854
38.5918,54.5236
38.6079,54.5097
38.6425,54.4845
38.8095,54.3175
38.9483,54.1264
39.0556,53.9160
39.1286,53.6914
39.1655,53.4581
39.1655,53.2219
39.1286,52.9886
39.0556,52.7640
38.9813,52.6183
38.9483,52.5536
38.8095,52.3625
38.6425,52.1955
38.6079,52.1703
38.5652,52.1150
38.5592,52.0454
38.5918,51.9836
38.6079,51.9697
38.6425,51.9445
38.8095,51.7775
38.9483,51.5864
39.0556,51.3760
39.1286,51.1514
39.1655,50.9181
39.1655,50.6819
39.1286,50.4486
39.0556,50.2240
38.9813,50.0783
38.9483,50.0136
38.8095,49.8225
38.6425,49.6555
38.6079,49.6303
38.5652,49.5750
38.5592,49.5054
38.5918,49.4436
38.6079,49.4297
38.6425,49.4045
38.8095,49.2375
38.9483,49.0464
39.0556,48.8360
39.1286,48.6114
39.1655,48.3781
39.1655,48.1419
39.1286,47.9086
39.0947,47.8044
39.0556,47.6840
39.0556,47.6840
39.0556,47.6840
38.9813,47.5383
38.9483,47.4736
38.8584,47.3498
38.8350,47.2840
38.8508,47.2160
38.8997,47.1684
38.8995,47.1680
38.9009,47.1673
38.9009,47.1673
38.9011,47.1672
38.9073,47.1638
38.9073,47.1638
39.0225,47.0775
39.1088,46.9623
39.1591,46.8275
39.1655,46.7679
39.1655,44.6721
39.1591,44.6125
39.1088,44.4777
39.1088,44.4777
39.1088,44.4777
39.0225,44.3625
39.0225,44.3625
38.9073,44.2762
38.9073,44.2762
38.7725,44.2259
38.7725,44.2259
38.7129,44.2195
38.7129,44.2195
38.7129,44.2195
38.7129,44.2195
36.6171,44.2195
36.6171,44.2195
36.5575,44.2259
36.4227,44.2762
36.4227,44.2762
36.3075,44.3625
36.3075,44.3625
36.2212,44.4777
36.2212,44.4777
36.1709,44.6125
36.1645,44.6721
36.1645,44.6721
36.1645,44.6721
36.1645,46.7679
36.1645,46.7679
36.1709,46.8275
36.2212,46.9623
36.2212,46.9623
36.3075,47.0775
36.3075,47.0775
36.4227,47.1638
36.4305,47.1680
36.4286,47.1714
36.4704,47.2024
36.4949,47.2679
36.4802,47.3362
36.4715,47.3498
36.3817,47.4736
36.2744,47.6840
36.2014,47.9086
36.1645,48.1419
36.1645,48.3781
36.2014,48.6114
36.2744,48.8360
36.3633,49.0105
36.3817,49.0464
36.5205,49.2375
36.6875,49.4045
36.7221,49.4297
36.7648,49.4850
36.7708,49.5546
36.7382,49.6164
36.7221,49.6303
36.7044,49.6432
36.6875,49.6555
36.5205,49.8225
36.5205,49.8225
36.5205,49.8225
36.4609,49.9046
36.3817,50.0136
36.2744,50.2240
36.2014,50.4486
36.1645,50.6819
36.1645,50.9181
36.2014,51.1514
36.2744,51.3760
36.3633,51.5505
36.3817,51.5864
36.5205,51.7775
36.6875,51.9445
36.7221,51.9697
36.7648,52.0250
36.7708,52.0946
36.7382,52.1564
36.7221,52.1703
36.7105,52.1788
36.6875,52.1955
36.5205,52.3625
36.5205,52.3625
36.5205,52.3625
36.4609,52.4445
36.3817,52.5536
36.2744,52.7640
36.2014,52.9886
36.1645,53.2219
36.1645,53.4581
36.2014,53.6914
36.2744,53.9160
36.3633,54.0905
36.3817,54.1264
36.5205,54.3175
36.6875,54.4845
36.7221,54.5097
36.7648,54.5650
36.7708,54.6346
36.7382,54.6964
36.7221,54.7103
36.7105,54.7188
36.6875,54.7355
36.5205,54.9025
36.5205,54.9025
36.5205,54.9025
36.4609,54.9845
36.3817,55.0936
36.2744,55.3040
36.2014,55.5286
36.1645,55.7619
36.1645,55.9981
36.2014,56.2314
36.2744,56.4560
36.3633,56.6305
36.3817,56.6664
36.5205,56.8575
36.6875,57.0245
36.7221,57.0497
36.7648,57.1050
36.7708,57.1746
36.7382,57.2364
36.7221,57.2503
36.7105,57.2588
36.6875,57.2755
36.5205,57.4425
36.5205,57.4425
36.5205,57.4425
36.4609,57.5245
36.3817,57.6336
36.2744,57.8440
36.2014,58.0686
36.1645,58.3019
36.1645,58.5381
36.2014,58.7714
36.2744,58.9960
36.3633,59.1705
36.3817,59.2064
36.5205,59.3975
36.6875,59.5645
36.7221,59.5897
36.7648,59.6450
36.7708,59.7146
36.7382,59.7764
36.7221,59.7903
36.7105,59.7988
36.6875,59.8155
36.5205,59.9825
36.5205,59.9825
36.5205,59.9825
36.4609,60.0645
36.3817,60.1736
36.2744,60.3840
36.2014,60.6086
36.1645,60.8419
36.1645,61.0781
36.2014,61.3114
36.2744,61.5360
36.3566,61.6973
36.3817,61.7464
36.5205,61.9375
36.6875,62.1045
36.7221,62.1297
36.7648,62.1850
36.7708,62.2546
36.7382,62.3164
36.7221,62.3303
36.7105,62.3388
36.6875,62.3555
36.5205,62.5225
36.5205,62.5225
36.5205,62.5225
36.4609,62.6045
36.3817,62.7136
36.2744,62.9240
36.2014,63.1486
36.1645,63.3819
36.1645,63.6181
36.2014,63.8514
36.2744,64.0760
36.3149,64.1554
36.3817,64.2864
36.5205,64.4775
36.6875,64.6445
36.8786,64.7833
36.9171,64.8030
37.0890,64.8906
37.0890,64.8906
37.0890,64.8906
37.1673,64.9160
37.3136,64.9636
37.5469,65.0005
37.5469,65.0005
37.7831,65.0005
38.0164,64.9636
38.2410,64.8906
38.4514,64.7833
38.6425,64.6445
38.8095,64.4775
38.9483,64.2864
39.0200,64.1458
39.0680,64.0950
39.1358,64.0782
39.2019,64.1007
39.2454,64.1554
39.2545,64.2021
39.2545,76.1553
39.2348,76.2223
39.2182,76.2430
37.0820,78.3791
37.0820,78.3791
37.0517,78.4245
37.0517,78.4245
36.9999,78.5020
36.9433,78.6386
36.9433,78.6386
36.9145,78.7836
36.9145,79.9074
36.8948,79.9744
36.8634,80.0077
36.6875,80.1355
36.5205,80.3025
36.5205,80.3025
36.5205,80.3025
36.4643,80.3798
36.3817,80.4936
36.2744,80.7040
36.2014,80.9286
36.1645,81.1619
36.1645,81.3981
36.2014,81.6314
36.2744,81.8560
36.3817,82.0664
36.5205,82.2575
36.5205,82.2575
36.6909,82.4280
36.6901,82.4288
36.7253,82.4827
36.7258,82.5526
36.6885,82.6116
36.6251,82.6411
36.6066,82.6425
35.9805,82.6425
35.9135,82.6228
35.8677,82.5700
35.8565,82.5185
35.8565,41.8225
35.8762,41.7555
35.9290,41.7097
35.9805,41.6985
63.4415,41.6985
Z" /> 
</g> 
</svg>
