<?xml version="1.0" standalone="no"?>
 <!DOCTYPE svg PUBLIC "-//W3C//DTD SVG 1.1//EN" 
 "http://www.w3.org/Graphics/SVG/1.1/DTD/svg11.dtd"> 
<svg
  xmlns:svg="http://www.w3.org/2000/svg"
  xmlns="http://www.w3.org/2000/svg"
  xmlns:xlink="http://www.w3.org/1999/xlink"
  version="1.1"
  width="297.0022mm" height="210.0072mm" viewBox="0.0000 0.0000 297.0022 210.0072">
<title>SVG Image created as caretaker-F_Cu.svg date 2025/03/12 10:41:05 </title>
  <desc>Image generated by PCBNEW </desc>
<g style="fill:#000000; fill-opacity:1.0000;stroke:#000000; stroke-opacity:1.0000;
stroke-linecap:round; stroke-linejoin:round;"
 transform="translate(0 0) scale(1 1)">
<path style="fill:none; 
stroke:#000000; stroke-width:0.1000; stroke-opacity:1; 
stroke-linecap:round; stroke-linejoin:round;fill:none"
d="M 33.2010,43.6880
62.0110,43.6880
62.0110,85.7330
33.2010,85.7330
Z" /> 
<path style="fill:#000000; fill-opacity:1.0000; stroke:none;fill-rule:evenodd;"
d="M 56.5875,66.9500
56.5685,67.0457
56.5143,67.1268
56.4332,67.1810
56.3375,67.2000
55.8125,67.2000
55.7168,67.1810
55.6357,67.1268
55.5815,67.0457
55.5625,66.9500
55.5625,66.0500
55.5815,65.9543
55.6357,65.8732
55.7168,65.8190
55.8125,65.8000
56.3375,65.8000
56.4332,65.8190
56.5143,65.8732
56.5685,65.9543
56.5875,66.0500
Z" /> 
<path style="fill:#000000; fill-opacity:1.0000; stroke:none;fill-rule:evenodd;"
d="M 54.7625,66.9500
54.7435,67.0457
54.6893,67.1268
54.6082,67.1810
54.5125,67.2000
53.9875,67.2000
53.8918,67.1810
53.8107,67.1268
53.7565,67.0457
53.7375,66.9500
53.7375,66.0500
53.7565,65.9543
53.8107,65.8732
53.8918,65.8190
53.9875,65.8000
54.5125,65.8000
54.6082,65.8190
54.6893,65.8732
54.7435,65.9543
54.7625,66.0500
Z" /> 
</g>
<g style="fill:#000000; fill-opacity:1.0000; stroke:none;">
<circle cx="49.7500" cy="81.5000" r="1.0000" /> 
</g>
<g style="fill:#000000; fill-opacity:1.0000; stroke:none;">
<circle cx="53.2500" cy="81.5000" r="1.0000" /> 
</g>
<g style="fill:#000000; fill-opacity:1.0000; stroke:none;">
<circle cx="35.7500" cy="81.5000" r="1.0000" /> 
</g>
<g style="fill:#000000; fill-opacity:1.0000; stroke:none;">
<circle cx="39.2500" cy="81.5000" r="1.0000" /> 
<path style="fill:#000000; fill-opacity:1.0000; stroke:none;fill-rule:evenodd;"
d="M 34.6600,49.1600
34.6600,47.3600
36.4600,47.3600
36.4600,49.1600
Z" /> 
</g>
<g style="fill:#000000; fill-opacity:1.0000; stroke:none;">
<circle cx="35.5600" cy="50.8000" r="0.9000" /> 
</g>
<g style="fill:#000000; fill-opacity:1.0000; stroke:none;">
<circle cx="35.5600" cy="53.3400" r="0.9000" /> 
</g>
<g style="fill:#000000; fill-opacity:1.0000; stroke:none;">
<circle cx="35.5600" cy="55.8800" r="0.9000" /> 
</g>
<g style="fill:#000000; fill-opacity:1.0000; stroke:none;">
<circle cx="35.5600" cy="58.4200" r="0.9000" /> 
</g>
<g style="fill:#000000; fill-opacity:1.0000; stroke:none;">
<circle cx="35.5600" cy="60.9600" r="0.9000" /> 
</g>
<g style="fill:#000000; fill-opacity:1.0000; stroke:none;">
<circle cx="35.5600" cy="63.5000" r="0.9000" /> 
</g>
<g style="fill:#000000; fill-opacity:1.0000; stroke:none;">
<circle cx="35.5600" cy="66.0400" r="0.9000" /> 
<path style="fill:#000000; fill-opacity:1.0000; stroke:none;fill-rule:evenodd;"
d="M 57.5200,49.1600
57.5200,47.3600
59.3200,47.3600
59.3200,49.1600
Z" /> 
</g>
<g style="fill:#000000; fill-opacity:1.0000; stroke:none;">
<circle cx="58.4200" cy="50.8000" r="0.9000" /> 
</g>
<g style="fill:#000000; fill-opacity:1.0000; stroke:none;">
<circle cx="58.4200" cy="53.3400" r="0.9000" /> 
</g>
<g style="fill:#000000; fill-opacity:1.0000; stroke:none;">
<circle cx="58.4200" cy="55.8800" r="0.9000" /> 
</g>
<g style="fill:#000000; fill-opacity:1.0000; stroke:none;">
<circle cx="58.4200" cy="58.4200" r="0.9000" /> 
</g>
<g style="fill:#000000; fill-opacity:1.0000; stroke:none;">
<circle cx="58.4200" cy="60.9600" r="0.9000" /> 
</g>
<g style="fill:#000000; fill-opacity:1.0000; stroke:none;">
<circle cx="58.4200" cy="63.5000" r="0.9000" /> 
</g>
<g style="fill:#000000; fill-opacity:1.0000; stroke:none;">
<circle cx="58.4200" cy="66.0400" r="0.9000" /> 
</g>
<g style="fill:#000000; fill-opacity:1.0000; stroke:none;">
<circle cx="57.7500" cy="74.7500" r="1.0000" /> 
</g>
<g style="fill:#000000; fill-opacity:1.0000; stroke:none;">
<circle cx="57.7500" cy="71.2500" r="1.0000" /> 
<path style="fill:#000000; fill-opacity:1.0000; stroke:none;fill-rule:evenodd;"
d="M 48.2000,67.9000
48.2957,67.9190
48.3768,67.9732
48.4310,68.0543
48.4500,68.1500
48.4500,68.8500
48.4310,68.9457
48.3768,69.0268
48.2957,69.0810
48.2000,69.1000
47.3000,69.1000
47.2043,69.0810
47.1232,69.0268
47.0690,68.9457
47.0500,68.8500
47.0500,68.1500
47.0690,68.0543
47.1232,67.9732
47.2043,67.9190
47.3000,67.9000
Z" /> 
<path style="fill:#000000; fill-opacity:1.0000; stroke:none;fill-rule:evenodd;"
d="M 48.2000,69.9000
48.2957,69.9190
48.3768,69.9732
48.4310,70.0543
48.4500,70.1500
48.4500,70.8500
48.4310,70.9457
48.3768,71.0268
48.2957,71.0810
48.2000,71.1000
47.3000,71.1000
47.2043,71.0810
47.1232,71.0268
47.0690,70.9457
47.0500,70.8500
47.0500,70.1500
47.0690,70.0543
47.1232,69.9732
47.2043,69.9190
47.3000,69.9000
Z" /> 
</g>
<g style="fill:#000000; fill-opacity:1.0000; stroke:none;">
<circle cx="37.5000" cy="71.2500" r="1.0000" /> 
</g>
<g style="fill:#000000; fill-opacity:1.0000; stroke:none;">
<circle cx="37.5000" cy="74.7500" r="1.0000" /> 
<path style="fill:#000000; fill-opacity:1.0000; stroke:none;fill-rule:evenodd;"
d="M 48.6500,64.3000
48.6690,64.2043
48.7232,64.1232
48.8043,64.0690
48.9000,64.0500
49.6000,64.0500
49.6957,64.0690
49.7768,64.1232
49.8310,64.2043
49.8500,64.3000
49.8500,65.2000
49.8310,65.2957
49.7768,65.3768
49.6957,65.4310
49.6000,65.4500
48.9000,65.4500
48.8043,65.4310
48.7232,65.3768
48.6690,65.2957
48.6500,65.2000
Z" /> 
<path style="fill:#000000; fill-opacity:1.0000; stroke:none;fill-rule:evenodd;"
d="M 50.6500,64.3000
50.6690,64.2043
50.7232,64.1232
50.8043,64.0690
50.9000,64.0500
51.6000,64.0500
51.6957,64.0690
51.7768,64.1232
51.8310,64.2043
51.8500,64.3000
51.8500,65.2000
51.8310,65.2957
51.7768,65.3768
51.6957,65.4310
51.6000,65.4500
50.9000,65.4500
50.8043,65.4310
50.7232,65.3768
50.6690,65.2957
50.6500,65.2000
Z" /> 
</g>
<g style="fill:#000000; fill-opacity:1.0000; stroke:none;">
<circle cx="42.7500" cy="81.5000" r="1.0000" /> 
</g>
<g style="fill:#000000; fill-opacity:1.0000; stroke:none;">
<circle cx="46.2500" cy="81.5000" r="1.0000" /> 
<path style="fill:#000000; fill-opacity:1.0000; stroke:none;fill-rule:evenodd;"
d="M 50.2625,68.4000
50.2739,68.3426
50.3064,68.2939
50.3551,68.2614
50.4125,68.2500
51.5875,68.2500
51.6449,68.2614
51.6936,68.2939
51.7261,68.3426
51.7375,68.4000
51.7375,68.7000
51.7261,68.7574
51.6936,68.8061
51.6449,68.8386
51.5875,68.8500
50.4125,68.8500
50.3551,68.8386
50.3064,68.8061
50.2739,68.7574
50.2625,68.7000
Z" /> 
<path style="fill:#000000; fill-opacity:1.0000; stroke:none;fill-rule:evenodd;"
d="M 50.2625,70.3000
50.2739,70.2426
50.3064,70.1939
50.3551,70.1614
50.4125,70.1500
51.5875,70.1500
51.6449,70.1614
51.6936,70.1939
51.7261,70.2426
51.7375,70.3000
51.7375,70.6000
51.7261,70.6574
51.6936,70.7061
51.6449,70.7386
51.5875,70.7500
50.4125,70.7500
50.3551,70.7386
50.3064,70.7061
50.2739,70.6574
50.2625,70.6000
Z" /> 
<path style="fill:#000000; fill-opacity:1.0000; stroke:none;fill-rule:evenodd;"
d="M 52.1375,69.3500
52.1489,69.2926
52.1814,69.2439
52.2301,69.2114
52.2875,69.2000
53.4625,69.2000
53.5199,69.2114
53.5686,69.2439
53.6011,69.2926
53.6125,69.3500
53.6125,69.6500
53.6011,69.7074
53.5686,69.7561
53.5199,69.7886
53.4625,69.8000
52.2875,69.8000
52.2301,69.7886
52.1814,69.7561
52.1489,69.7074
52.1375,69.6500
Z" /> 
</g>
<g style="fill:none; 
stroke:#000000; stroke-width:0.5000; stroke-opacity:1; 
stroke-linecap:round; stroke-linejoin:round;">
<path d="M42.2500 56.0000
L44.9100 53.3400
" />
<path d="M42.2500 81.0000
L42.2500 56.0000
" />
<path d="M43.7150 48.2600
L59.5250 48.2600
" />
<path d="M40.2500 51.7250
L43.7150 48.2600
" />
<path d="M48.2500 64.7500
L47.7500 65.2500
" />
<path d="M36.5000 63.5000
L37.5000 64.5000
" />
<path d="M37.5000 74.7500
L39.2500 73.0000
" />
<path d="M44.2500 60.7500
L46.5800 58.4200
" />
<path d="M57.0000 66.5000
L56.0750 66.5000
" />
<path d="M49.7500 81.5000
L44.2500 76.0000
" />
<path d="M45.2500 73.5000
L53.2500 81.5000
" />
<path d="M48.2500 64.7500
L47.7500 64.2500
" />
<path d="M46.5800 58.4200
L57.6200 58.4200
" />
<path d="M45.2500 63.0000
L45.2500 73.5000
" />
<path d="M47.7500 64.2500
L47.7500 63.2500
" />
<path d="M49.2500 64.7500
L48.2500 64.7500
" />
<path d="M39.2500 77.2500
L39.2500 81.5000
" />
<path d="M57.7500 69.5000
L52.8750 69.5000
" />
<path d="M57.6200 60.9600
L47.2900 60.9600
" />
<path d="M45.6200 55.8800
L57.6200 55.8800
" />
<path d="M47.7500 65.2500
L47.7500 68.5000
" />
<path d="M47.7500 71.5000
L47.7500 70.5000
" />
<path d="M51.0000 74.7500
L47.7500 71.5000
" />
<path d="M35.5600 63.5000
L36.5000 63.5000
" />
<path d="M43.2500 78.5000
L43.2500 58.2500
" />
<path d="M51.0000 70.4500
L51.0000 71.7500
" />
<path d="M47.2900 60.9600
L45.2500 63.0000
" />
<path d="M55.9800 62.2300
L57.2500 63.5000
" />
<path d="M55.8650 66.0400
L55.8250 66.0000
" />
<path d="M51.7500 66.5000
L51.0000 67.2500
" />
<path d="M37.5000 64.5000
L37.5000 71.2500
" />
<path d="M56.7500 72.2500
L57.7500 71.2500
" />
<path d="M35.7500 81.5000
L35.7500 79.2500
" />
<path d="M41.2500 54.2500
L41.2500 75.2500
" />
<path d="M57.7500 74.7500
L51.0000 74.7500
" />
<path d="M48.7700 62.2300
L55.9800 62.2300
" />
<path d="M40.2500 74.7500
L40.2500 51.7250
" />
<path d="M61.0000 49.7350
L61.0000 66.2500
" />
<path d="M51.0000 71.7500
L51.5000 72.2500
" />
<path d="M42.7500 81.5000
L42.2500 81.0000
" />
<path d="M54.2500 66.5000
L51.7500 66.5000
" />
<path d="M57.2500 63.5000
L58.4200 63.5000
" />
<path d="M58.4200 66.0400
L57.4600 66.0400
" />
<path d="M39.2500 73.0000
L39.2500 72.7500
" />
<path d="M44.2500 76.0000
L44.2500 60.7500
" />
<path d="M35.5600 60.9600
L39.2500 64.6500
" />
<path d="M35.7500 79.2500
L40.2500 74.7500
" />
<path d="M57.4600 66.0400
L57.0000 66.5000
" />
<path d="M61.0000 66.2500
L57.7500 69.5000
" />
<path d="M60.0000 51.9100
L60.0000 64.0000
" />
<path d="M47.7500 65.2500
L47.7500 64.2500
" />
<path d="M46.2500 81.5000
L43.2500 78.5000
" />
<path d="M51.5000 72.2500
L56.7500 72.2500
" />
<path d="M59.5250 48.2600
L61.0000 49.7350
" />
<path d="M58.4200 50.8000
L44.7000 50.8000
" />
<path d="M47.7500 63.2500
L48.7700 62.2300
" />
<path d="M60.0000 64.0000
L59.2500 64.7500
" />
<path d="M51.0000 68.5500
L51.0000 67.2500
" />
<path d="M39.2500 64.6500
L39.2500 72.7500
" />
<path d="M43.2500 58.2500
L45.6200 55.8800
" />
<path d="M52.0000 64.7500
L57.7500 64.7500
" />
<path d="M41.2500 75.2500
L39.2500 77.2500
" />
<path d="M51.7500 64.7500
L52.0000 64.7500
" />
<path d="M44.7000 50.8000
L41.2500 54.2500
" />
<path d="M44.9100 53.3400
L57.6200 53.3400
" />
</g>
<g style="fill:none; 
stroke:#000000; stroke-width:0.3000; stroke-opacity:1; 
stroke-linecap:round; stroke-linejoin:round;">
<path d="M57.7500 64.7500
L59.2500 64.7500
" />
</g>
<g style="fill:none; 
stroke:#000000; stroke-width:0.5000; stroke-opacity:1; 
stroke-linecap:round; stroke-linejoin:round;">
<path d="M58.8900 50.8000
L60.0000 51.9100
" />
<path style="fill:#000000; fill-opacity:1.0000; stroke:none;fill-rule:evenodd;"
d="M 34.0034,49.2784
34.0063,49.2779
34.0509,49.2879
34.0958,49.2968
34.0982,49.2985
34.1011,49.2991
34.1385,49.3254
34.1766,49.3508
34.1786,49.3535
34.1806,49.3549
34.2100,49.3857
34.2162,49.4023
34.3025,49.5175
34.4177,49.6038
34.4184,49.6041
34.4336,49.6200
34.4857,49.7020
34.5024,49.7977
34.4813,49.8926
34.4549,49.9383
34.3622,50.0660
34.3622,50.0660
34.2621,50.2624
34.2621,50.2624
34.2373,50.3387
34.1898,50.4235
34.1135,50.4836
34.0200,50.5100
33.9236,50.4986
33.8388,50.4511
33.7786,50.3748
33.7523,50.2813
33.7515,50.2618
33.7515,49.5269
33.7521,49.5240
33.7516,49.5211
33.7615,49.4764
33.7705,49.4316
33.7721,49.4291
33.7727,49.4262
33.7990,49.3888
33.8244,49.3508
33.8269,49.3491
33.8286,49.3467
33.8672,49.3222
33.9052,49.2968
33.9081,49.2962
33.9106,49.2947
33.9556,49.2868
34.0005,49.2779
Z" /> 
<path style="fill:#000000; fill-opacity:1.0000; stroke:none;fill-rule:evenodd;"
d="M 57.1266,51.5543
57.1462,51.5536
57.1738,51.5637
57.2026,51.5695
57.2189,51.5804
57.2374,51.5872
57.2589,51.6071
57.2834,51.6234
57.3087,51.6531
57.3518,51.7124
57.3518,51.7124
57.5076,51.8682
57.5081,51.8686
57.5083,51.8688
57.5151,51.8746
57.5144,51.8754
57.5740,51.9399
57.6076,52.0310
57.6038,52.1281
57.5632,52.2164
57.5431,52.2406
57.5270,52.2577
57.5076,52.2718
57.3518,52.4276
57.2995,52.4996
57.2887,52.5111
57.2617,52.5303
57.2374,52.5528
57.2225,52.5583
57.2096,52.5675
57.1773,52.5750
57.1462,52.5864
57.1181,52.5886
57.1149,52.5894
57.1129,52.5891
57.1073,52.5895
44.8361,52.5895
44.6911,52.6183
44.6911,52.6183
44.5706,52.6683
44.4753,52.6872
44.3800,52.6683
44.2992,52.6143
44.2453,52.5335
44.2263,52.4382
44.2453,52.3429
44.2992,52.2621
44.9379,51.6234
45.0187,51.5695
45.1140,51.5505
57.1073,51.5505
Z" /> 
<path style="fill:#000000; fill-opacity:1.0000; stroke:none;fill-rule:evenodd;"
d="M 34.0958,51.1082
34.1766,51.1622
34.2305,51.2430
34.2373,51.2613
34.2565,51.3203
34.2621,51.3376
34.2621,51.3376
34.3622,51.5340
34.3622,51.5340
34.3622,51.5340
34.4918,51.7124
34.6476,51.8682
34.6481,51.8686
34.6483,51.8688
34.6551,51.8746
34.6544,51.8754
34.7140,51.9399
34.7476,52.0310
34.7438,52.1281
34.7032,52.2164
34.6546,52.2649
34.6551,52.2654
34.6484,52.2711
34.6481,52.2714
34.6480,52.2715
34.6476,52.2718
34.4918,52.4276
34.3622,52.6060
34.3622,52.6060
34.2621,52.8024
34.2621,52.8024
34.2373,52.8787
34.1898,52.9635
34.1135,53.0236
34.0200,53.0500
33.9236,53.0386
33.8388,52.9911
33.7786,52.9148
33.7523,52.8213
33.7515,52.8018
33.7515,51.3382
33.7705,51.2430
33.8244,51.1622
33.9052,51.1082
34.0005,51.0892
Z" /> 
<path style="fill:#000000; fill-opacity:1.0000; stroke:none;fill-rule:evenodd;"
d="M 56.8094,49.0174
56.8448,49.0206
56.8567,49.0268
56.8699,49.0295
56.8994,49.0492
56.9309,49.0656
56.9395,49.0759
56.9507,49.0834
56.9704,49.1129
56.9932,49.1402
56.9972,49.1530
57.0047,49.1642
57.0222,49.2329
57.0259,49.2675
57.0259,49.2675
57.0463,49.3222
57.0762,49.4023
57.1625,49.5175
57.2627,49.5926
57.2940,49.6274
57.3258,49.6618
57.3264,49.6635
57.3276,49.6649
57.3432,49.7090
57.3594,49.7530
57.3594,49.7548
57.3600,49.7565
57.3575,49.8033
57.3556,49.8500
57.3549,49.8517
57.3548,49.8535
57.3150,49.9383
57.3120,49.9424
57.3087,49.9468
57.2374,50.0128
57.1463,50.0464
57.1073,50.0495
44.6261,50.0495
44.4811,50.0783
44.3445,50.1349
44.3445,50.1349
44.2953,50.1678
44.2953,50.1678
44.2584,50.1924
44.2216,50.2170
41.4256,53.0131
41.3448,53.0670
41.2495,53.0860
41.1542,53.0670
41.0734,53.0131
41.0195,52.9323
41.0005,52.8370
41.0005,52.1390
41.0195,52.0437
41.0734,51.9629
43.9529,49.0834
44.0337,49.0295
44.1290,49.0105
56.7746,49.0105
Z" /> 
<path style="fill:#000000; fill-opacity:1.0000; stroke:none;fill-rule:evenodd;"
d="M 34.0958,53.6482
34.1766,53.7022
34.2305,53.7830
34.2373,53.8013
34.2612,53.8747
34.2621,53.8776
34.2621,53.8776
34.3622,54.0740
34.3622,54.0740
34.3622,54.0740
34.4918,54.2524
34.6476,54.4082
34.6481,54.4086
34.6483,54.4088
34.6551,54.4146
34.6544,54.4154
34.7140,54.4799
34.7476,54.5710
34.7438,54.6681
34.7032,54.7564
34.6546,54.8049
34.6551,54.8054
34.6484,54.8111
34.6481,54.8114
34.6480,54.8115
34.6476,54.8118
34.4918,54.9676
34.3622,55.1460
34.3622,55.1460
34.2621,55.3424
34.2621,55.3424
34.2373,55.4187
34.1898,55.5035
34.1135,55.5636
34.0200,55.5900
33.9236,55.5786
33.8388,55.5311
33.7786,55.4548
33.7523,55.3613
33.7515,55.3418
33.7515,53.8782
33.7705,53.7830
33.8244,53.7022
33.9052,53.6482
34.0005,53.6292
Z" /> 
<path style="fill:#000000; fill-opacity:1.0000; stroke:none;fill-rule:evenodd;"
d="M 57.1266,54.0943
57.1462,54.0936
57.1738,54.1037
57.2026,54.1095
57.2189,54.1204
57.2374,54.1272
57.2589,54.1471
57.2834,54.1634
57.3087,54.1931
57.3518,54.2524
57.3518,54.2524
57.5076,54.4082
57.5081,54.4086
57.5083,54.4088
57.5151,54.4146
57.5144,54.4154
57.5740,54.4799
57.6076,54.5710
57.6038,54.6681
57.5632,54.7564
57.5431,54.7806
57.5270,54.7977
57.5076,54.8118
57.3518,54.9676
57.2995,55.0396
57.2887,55.0511
57.2617,55.0703
57.2374,55.0928
57.2225,55.0983
57.2096,55.1075
57.1773,55.1150
57.1462,55.1264
57.1181,55.1287
57.1149,55.1294
57.1129,55.1291
57.1073,55.1295
45.5461,55.1295
45.4011,55.1583
45.2645,55.2149
45.2645,55.2149
45.1696,55.2783
45.1416,55.2970
45.1416,55.2970
43.4256,57.0131
43.3448,57.0670
43.2495,57.0860
43.1542,57.0670
43.0734,57.0131
43.0195,56.9323
43.0005,56.8370
43.0005,56.4140
43.0195,56.3187
43.0734,56.2379
45.1479,54.1634
45.2287,54.1095
45.3240,54.0905
57.1073,54.0905
Z" /> 
<path style="fill:#000000; fill-opacity:1.0000; stroke:none;fill-rule:evenodd;"
d="M 34.0958,56.1882
34.1766,56.2422
34.2305,56.3230
34.2373,56.3413
34.2609,56.4140
34.2621,56.4176
34.2621,56.4176
34.3622,56.6140
34.3622,56.6140
34.3622,56.6140
34.4918,56.7924
34.6476,56.9482
34.6481,56.9486
34.6483,56.9488
34.6551,56.9546
34.6544,56.9554
34.7140,57.0199
34.7476,57.1110
34.7438,57.2081
34.7032,57.2964
34.6546,57.3449
34.6551,57.3454
34.6484,57.3511
34.6481,57.3514
34.6480,57.3515
34.6476,57.3518
34.4918,57.5076
34.3622,57.6860
34.3622,57.6860
34.2621,57.8824
34.2621,57.8824
34.2373,57.9587
34.1898,58.0435
34.1135,58.1036
34.0200,58.1300
33.9236,58.1186
33.8388,58.0711
33.7786,57.9948
33.7523,57.9013
33.7515,57.8818
33.7515,56.4182
33.7705,56.3230
33.8244,56.2422
33.9052,56.1882
34.0005,56.1692
Z" /> 
<path style="fill:#000000; fill-opacity:1.0000; stroke:none;fill-rule:evenodd;"
d="M 57.1266,56.6343
57.1462,56.6336
57.1738,56.6437
57.2026,56.6495
57.2189,56.6604
57.2374,56.6672
57.2589,56.6871
57.2834,56.7034
57.3087,56.7331
57.3518,56.7924
57.3518,56.7924
57.5076,56.9482
57.5081,56.9486
57.5083,56.9488
57.5151,56.9546
57.5144,56.9554
57.5740,57.0199
57.6076,57.1110
57.6038,57.2081
57.5632,57.2964
57.5431,57.3206
57.5270,57.3377
57.5076,57.3518
57.3518,57.5076
57.2995,57.5796
57.2887,57.5911
57.2617,57.6103
57.2374,57.6328
57.2225,57.6383
57.2096,57.6475
57.1773,57.6550
57.1462,57.6664
57.1181,57.6686
57.1149,57.6694
57.1129,57.6691
57.1073,57.6695
46.5061,57.6695
46.4772,57.6752
46.4772,57.6752
46.3611,57.6983
46.2811,57.7315
46.2811,57.7315
46.2245,57.7549
46.2245,57.7549
46.1996,57.7716
46.1996,57.7716
46.1016,57.8370
44.4256,59.5131
44.3448,59.5670
44.2495,59.5860
44.1542,59.5670
44.0734,59.5131
44.0195,59.4323
44.0005,59.3370
44.0005,58.6640
44.0195,58.5687
44.0734,58.4879
45.8579,56.7034
45.9387,56.6495
46.0340,56.6305
57.1073,56.6305
Z" /> 
<path style="fill:#000000; fill-opacity:1.0000; stroke:none;fill-rule:evenodd;"
d="M 34.0958,58.7282
34.1766,58.7822
34.2305,58.8630
34.2373,58.8813
34.2612,58.9547
34.2621,58.9576
34.2621,58.9576
34.3622,59.1540
34.3622,59.1540
34.3622,59.1540
34.4918,59.3324
34.6476,59.4882
34.6481,59.4886
34.6483,59.4888
34.6551,59.4946
34.6544,59.4954
34.7140,59.5599
34.7476,59.6510
34.7438,59.7481
34.7032,59.8364
34.6546,59.8849
34.6551,59.8854
34.6484,59.8911
34.6481,59.8914
34.6480,59.8915
34.6476,59.8918
34.4918,60.0476
34.3622,60.2260
34.3622,60.2260
34.2621,60.4224
34.2621,60.4224
34.2373,60.4987
34.1898,60.5835
34.1135,60.6436
34.0200,60.6700
33.9236,60.6586
33.8388,60.6111
33.7786,60.5348
33.7523,60.4413
33.7515,60.4218
33.7515,58.9582
33.7705,58.8630
33.8244,58.7822
33.9052,58.7282
34.0005,58.7092
Z" /> 
<path style="fill:#000000; fill-opacity:1.0000; stroke:none;fill-rule:evenodd;"
d="M 57.1266,59.1743
57.1462,59.1736
57.1738,59.1837
57.2026,59.1895
57.2189,59.2004
57.2374,59.2072
57.2589,59.2271
57.2834,59.2434
57.3087,59.2731
57.3518,59.3324
57.3518,59.3324
57.5076,59.4882
57.5081,59.4886
57.5083,59.4888
57.5151,59.4946
57.5144,59.4954
57.5740,59.5599
57.6076,59.6510
57.6038,59.7481
57.5632,59.8364
57.5431,59.8606
57.5270,59.8777
57.5076,59.8918
57.3518,60.0476
57.2995,60.1196
57.2887,60.1311
57.2617,60.1503
57.2374,60.1728
57.2225,60.1783
57.2096,60.1875
57.1773,60.1950
57.1462,60.2064
57.1181,60.2086
57.1149,60.2094
57.1129,60.2091
57.1073,60.2095
47.2161,60.2095
47.1872,60.2152
47.1872,60.2152
47.0711,60.2383
46.9911,60.2715
46.9345,60.2949
46.9345,60.2949
46.9345,60.2949
46.8524,60.3498
46.8320,60.3634
46.8116,60.3770
46.8116,60.3770
45.4256,61.7631
45.3448,61.8170
45.2495,61.8360
45.1542,61.8170
45.0734,61.7631
45.0195,61.6823
45.0005,61.5870
45.0005,61.1640
45.0195,61.0687
45.0734,60.9879
46.8179,59.2434
46.8987,59.1895
46.9940,59.1705
57.1073,59.1705
Z" /> 
<path style="fill:#000000; fill-opacity:1.0000; stroke:none;fill-rule:evenodd;"
d="M 34.0958,61.2682
34.1766,61.3222
34.2305,61.4030
34.2373,61.4213
34.2612,61.4947
34.2621,61.4976
34.2621,61.4976
34.3622,61.6940
34.3622,61.6940
34.3622,61.6940
34.4516,61.8170
34.4918,61.8724
34.6476,62.0282
34.6481,62.0286
34.6483,62.0288
34.6551,62.0346
34.6544,62.0354
34.7140,62.0999
34.7476,62.1910
34.7438,62.2881
34.7032,62.3764
34.6546,62.4249
34.6551,62.4254
34.6484,62.4311
34.6481,62.4314
34.6476,62.4318
34.4918,62.5876
34.3622,62.7660
34.3622,62.7660
34.2621,62.9624
34.2621,62.9624
34.2373,63.0387
34.1898,63.1235
34.1135,63.1836
34.0200,63.2100
33.9236,63.1986
33.8388,63.1511
33.7786,63.0748
33.7523,62.9813
33.7515,62.9618
33.7515,61.4982
33.7705,61.4030
33.8244,61.3222
33.9052,61.2682
34.0005,61.2492
Z" /> 
<path style="fill:#000000; fill-opacity:1.0000; stroke:none;fill-rule:evenodd;"
d="M 61.3068,44.2575
61.3876,44.3114
61.4415,44.3922
61.4605,44.4875
61.4605,48.5330
61.4415,48.6283
61.3876,48.7091
61.3068,48.7630
61.2115,48.7820
61.1162,48.7630
61.0354,48.7091
60.8594,48.5330
60.0034,47.6770
60.0034,47.6770
60.0034,47.6770
59.9312,47.6288
59.8625,47.5601
59.8253,47.4703
59.8205,47.4217
59.8205,47.3121
59.8205,47.3121
59.8141,47.2525
59.7638,47.1177
59.6775,47.0025
59.5623,46.9162
59.4821,46.8863
59.4275,46.8659
59.3679,46.8595
57.4721,46.8595
57.4721,46.8595
57.4721,46.8595
57.4593,46.8609
57.4125,46.8659
57.4125,46.8659
57.2777,46.9162
57.1625,47.0025
57.1625,47.0025
57.0762,47.1177
57.0259,47.2525
57.0222,47.2871
56.9932,47.3798
56.9309,47.4544
56.8448,47.4994
56.7746,47.5095
43.6411,47.5095
43.4961,47.5383
43.3595,47.5949
43.3595,47.5949
43.3103,47.6278
43.3103,47.6278
43.2734,47.6524
43.2366,47.6770
39.6670,51.2466
39.6178,51.3203
39.5849,51.3695
39.5849,51.3695
39.5283,51.5061
39.4995,51.6511
39.4995,63.2370
39.4805,63.3323
39.4266,63.4131
39.3458,63.4670
39.2505,63.4860
39.1552,63.4670
39.0744,63.4131
37.0189,61.3575
36.9649,61.2768
36.9460,61.1815
36.9490,61.1425
36.9605,61.0702
36.9605,60.8498
36.9260,60.6320
36.8579,60.4224
36.8579,60.4224
36.8579,60.4224
36.7578,60.2260
36.7578,60.2260
36.7578,60.2260
36.6282,60.0476
36.4724,59.8918
36.4719,59.8914
36.4717,59.8912
36.4649,59.8854
36.4656,59.8846
36.4060,59.8201
36.3724,59.7290
36.3762,59.6319
36.4168,59.5437
36.4654,59.4951
36.4649,59.4946
36.4716,59.4889
36.4719,59.4885
36.4724,59.4882
36.6282,59.3324
36.7578,59.1540
36.8579,58.9576
36.9260,58.7480
36.9605,58.5302
36.9605,58.3098
36.9260,58.0920
36.8579,57.8824
36.8579,57.8824
36.8579,57.8824
36.7578,57.6860
36.7578,57.6860
36.7578,57.6860
36.6282,57.5076
36.4724,57.3518
36.4719,57.3514
36.4717,57.3512
36.4649,57.3454
36.4656,57.3446
36.4060,57.2801
36.3724,57.1890
36.3762,57.0919
36.4168,57.0037
36.4654,56.9551
36.4649,56.9546
36.4716,56.9489
36.4719,56.9485
36.4724,56.9482
36.6282,56.7924
36.7578,56.6140
36.8579,56.4176
36.9260,56.2080
36.9605,55.9902
36.9605,55.7698
36.9260,55.5520
36.8579,55.3424
36.8579,55.3424
36.8579,55.3424
36.7578,55.1460
36.7578,55.1460
36.7578,55.1460
36.6282,54.9676
36.4724,54.8118
36.4719,54.8115
36.4717,54.8112
36.4649,54.8054
36.4656,54.8046
36.4060,54.7401
36.3724,54.6490
36.3762,54.5519
36.4168,54.4637
36.4654,54.4151
36.4649,54.4146
36.4716,54.4089
36.4719,54.4085
36.4724,54.4082
36.6282,54.2524
36.7578,54.0740
36.8579,53.8776
36.9260,53.6680
36.9605,53.4502
36.9605,53.2298
36.9278,53.0236
36.9260,53.0121
36.9260,53.0121
36.9260,53.0120
36.8579,52.8024
36.8579,52.8024
36.8579,52.8024
36.7578,52.6060
36.7578,52.6060
36.7578,52.6060
36.6282,52.4276
36.4724,52.2718
36.4719,52.2714
36.4717,52.2712
36.4649,52.2654
36.4656,52.2646
36.4060,52.2001
36.3724,52.1090
36.3762,52.0119
36.4168,51.9237
36.4654,51.8751
36.4649,51.8746
36.4716,51.8689
36.4719,51.8685
36.4724,51.8682
36.6282,51.7124
36.7578,51.5340
36.7720,51.5061
36.8579,51.3376
36.8579,51.3376
36.8579,51.3376
36.9260,51.1280
36.9605,50.9102
36.9605,50.6898
36.9260,50.4720
36.8579,50.2624
36.8579,50.2624
36.8579,50.2624
36.7578,50.0660
36.7578,50.0660
36.7578,50.0660
36.6651,49.9383
36.6244,49.8501
36.6206,49.7530
36.6542,49.6618
36.7173,49.5926
36.8175,49.5175
36.9038,49.4023
36.9541,49.2675
36.9605,49.2079
36.9605,47.3121
36.9541,47.2525
36.9038,47.1177
36.8175,47.0025
36.7023,46.9162
36.6221,46.8863
36.5675,46.8659
36.5079,46.8595
34.6121,46.8595
34.6121,46.8595
34.6121,46.8595
34.5993,46.8609
34.5525,46.8659
34.5525,46.8659
34.4177,46.9162
34.3149,46.9931
34.3025,47.0025
34.2569,47.0633
34.2055,47.1319
34.2038,47.1307
34.1567,47.1870
34.0706,47.2321
33.9739,47.2407
33.8812,47.2117
33.8066,47.1494
33.7616,47.0633
33.7515,46.9931
33.7515,44.4875
33.7705,44.3922
33.8244,44.3114
33.9052,44.2575
34.0005,44.2385
61.2115,44.2385
Z" /> 
<path style="fill:#000000; fill-opacity:1.0000; stroke:none;fill-rule:evenodd;"
d="M 55.6613,62.9995
55.7421,63.0534
56.2631,63.5744
56.3170,63.6552
56.3360,63.7505
56.3170,63.8458
56.2631,63.9266
56.1823,63.9805
56.0870,63.9995
52.4354,63.9995
52.3401,63.9805
52.2593,63.9266
52.2235,63.8812
52.1927,63.8313
52.1927,63.8313
52.0687,63.7073
51.9193,63.6152
51.9193,63.6152
51.9193,63.6152
51.9193,63.6152
51.7528,63.5600
51.7528,63.5600
51.7528,63.5600
51.6500,63.5495
51.6500,63.5495
50.8500,63.5495
50.7472,63.5600
50.5807,63.6152
50.4313,63.7073
50.4313,63.7073
50.4313,63.7073
50.4261,63.7126
50.3453,63.7665
50.2500,63.7855
50.1547,63.7665
50.0739,63.7126
50.0687,63.7073
49.9193,63.6152
49.9193,63.6152
49.9193,63.6152
49.9193,63.6152
49.7528,63.5600
49.7528,63.5600
49.7528,63.5600
49.7014,63.5547
49.6500,63.5495
49.1130,63.5495
49.1130,63.5495
49.1130,63.5495
49.0751,63.5420
49.0177,63.5305
49.0177,63.5305
49.0014,63.5197
48.9369,63.4766
48.8945,63.4131
48.8830,63.3958
48.8666,63.3137
48.8640,63.3005
48.8830,63.2052
48.9369,63.1244
48.9379,63.1235
49.0079,63.0534
49.0887,62.9995
49.1840,62.9805
55.5660,62.9805
Z" /> 
<path style="fill:#000000; fill-opacity:1.0000; stroke:none;fill-rule:evenodd;"
d="M 34.0958,63.8082
34.1766,63.8622
34.2305,63.9430
34.2373,63.9613
34.2497,63.9995
34.2621,64.0376
34.2621,64.0376
34.3622,64.2340
34.3622,64.2340
34.4918,64.4124
34.6476,64.5682
34.6481,64.5686
34.6483,64.5688
34.6551,64.5746
34.6544,64.5754
34.7140,64.6399
34.7476,64.7310
34.7438,64.8281
34.7032,64.9164
34.6546,64.9649
34.6551,64.9654
34.6484,64.9711
34.6481,64.9714
34.6476,64.9718
34.4918,65.1276
34.3622,65.3060
34.3622,65.3060
34.2621,65.5024
34.2621,65.5024
34.2373,65.5787
34.1898,65.6635
34.1135,65.7236
34.0200,65.7500
33.9236,65.7386
33.8388,65.6911
33.7786,65.6148
33.7523,65.5213
33.7515,65.5018
33.7515,64.0382
33.7705,63.9430
33.8244,63.8622
33.9052,63.8082
34.0005,63.7892
Z" /> 
<path style="fill:#000000; fill-opacity:1.0000; stroke:none;fill-rule:evenodd;"
d="M 57.4848,67.1435
57.5262,67.1451
57.5329,67.1482
57.5403,67.1490
57.6144,67.1858
57.6563,67.2162
57.6860,67.2378
57.6860,67.2378
57.6860,67.2378
57.8824,67.3379
57.8824,67.3379
57.8824,67.3379
58.0920,67.4060
58.2055,67.4240
58.2967,67.4576
58.3680,67.5236
58.4087,67.6118
58.4125,67.7089
58.3789,67.8000
58.3426,67.8460
57.5121,68.6766
57.4313,68.7305
57.3360,68.7495
53.7626,68.7495
53.6931,68.7396
53.5651,68.7024
53.5651,68.7024
53.5282,68.6995
53.5282,68.6995
52.4870,68.6995
52.3917,68.6805
52.3109,68.6266
52.2570,68.5458
52.2380,68.4505
52.2380,68.3343
52.2380,68.3343
52.2351,68.2974
52.2351,68.2974
52.1892,68.1396
52.1056,67.9981
51.9894,67.8819
51.9138,67.8372
51.8905,67.8164
51.8645,67.7990
51.8547,67.7843
51.8415,67.7724
51.8279,67.7442
51.8105,67.7182
51.8071,67.7008
51.7994,67.6848
51.7977,67.6536
51.7916,67.6229
51.7950,67.6055
51.7941,67.5878
51.8044,67.5583
51.8105,67.5276
51.8204,67.5129
51.8263,67.4962
51.8645,67.4469
51.9879,67.3234
52.0687,67.2695
52.1640,67.2505
53.1521,67.2505
53.2474,67.2695
53.3282,67.3234
53.3640,67.3688
53.3948,67.4187
53.5188,67.5427
53.6682,67.6348
53.6682,67.6348
53.6682,67.6348
53.8086,67.6813
53.8347,67.6900
53.9375,67.7005
54.5625,67.7005
54.6653,67.6900
54.8318,67.6348
54.9812,67.5427
54.9864,67.5374
55.0672,67.4835
55.1625,67.4645
55.2578,67.4835
55.3386,67.5374
55.3438,67.5427
55.4932,67.6348
55.4932,67.6348
55.4932,67.6348
55.6336,67.6813
55.6597,67.6900
55.7625,67.7005
56.3875,67.7005
56.4903,67.6900
56.6568,67.6348
56.8062,67.5427
56.9302,67.4187
56.9714,67.3519
57.0375,67.2807
57.1259,67.2403
57.1347,67.2384
57.2189,67.2217
57.2189,67.2217
57.2189,67.2217
57.3668,67.1604
57.3677,67.1625
57.3903,67.1557
57.4291,67.1413
57.4365,67.1416
57.4436,67.1395
Z" /> 
<path style="fill:#000000; fill-opacity:1.0000; stroke:none;fill-rule:evenodd;"
d="M 56.2642,70.2695
56.3450,70.3234
56.3989,70.4042
56.4179,70.4995
56.3989,70.5948
56.3908,70.6125
56.3637,70.6657
56.3594,70.6740
56.2864,70.8986
56.2495,71.1319
56.2495,71.1319
56.2495,71.2505
56.2305,71.3458
56.1766,71.4266
56.0958,71.4805
56.0005,71.4995
52.2091,71.4995
52.1138,71.4805
52.0330,71.4266
51.9790,71.3458
51.9601,71.2505
51.9790,71.1552
52.0330,71.0744
52.1056,71.0019
52.1892,70.8604
52.2351,70.7026
52.2380,70.6657
52.2380,70.5495
52.2570,70.4542
52.3109,70.3734
52.3917,70.3195
52.4870,70.3005
53.5282,70.3005
53.5282,70.3005
53.5651,70.2976
53.6216,70.2812
53.6931,70.2604
53.7626,70.2505
56.1689,70.2505
Z" /> 
<path style="fill:#000000; fill-opacity:1.0000; stroke:none;fill-rule:evenodd;"
d="M 50.2598,65.7165
50.2698,65.7153
50.3072,65.7259
50.3453,65.7335
50.3536,65.7390
50.3633,65.7418
50.3983,65.7597
50.4313,65.7927
50.5807,65.8848
50.7472,65.9400
50.7522,65.9405
50.7756,65.9525
50.8518,66.0127
50.8992,66.0975
50.9105,66.1940
50.8840,66.2875
50.8384,66.3503
50.4170,66.7716
50.4170,66.7716
50.3760,66.8329
50.3760,66.8330
50.3349,66.8945
50.3349,66.8945
50.2783,67.0311
50.2495,67.1761
50.2495,67.5986
50.2305,67.6939
50.1766,67.7747
50.1273,67.8130
50.0973,67.8307
50.0106,67.8819
49.8944,67.9981
49.8108,68.1396
49.7649,68.2974
49.7649,68.2974
49.7620,68.3343
49.7620,68.7657
49.7649,68.8026
49.7649,68.8026
49.7649,68.8026
49.8108,68.9604
49.8944,69.1019
50.0106,69.2181
50.1249,69.2857
50.1973,69.3505
50.2394,69.4381
50.2447,69.5351
50.2125,69.6268
50.1477,69.6991
50.1249,69.7143
50.0106,69.7819
49.8944,69.8981
49.8108,70.0396
49.7649,70.1974
49.7649,70.1974
49.7620,70.2343
49.7620,70.6657
49.7649,70.7026
49.7649,70.7026
49.7649,70.7026
49.8108,70.8604
49.8944,71.0019
50.0106,71.1181
50.1273,71.1870
50.1996,71.2519
50.2417,71.3394
50.2495,71.4014
50.2495,71.8239
50.2783,71.9689
50.2783,71.9689
50.3349,72.1055
50.3349,72.1055
50.3557,72.1366
50.3557,72.1366
50.4170,72.2284
50.4170,72.2284
50.4170,72.2284
51.0216,72.8330
51.0953,72.8822
51.1445,72.9151
51.2811,72.9717
51.4261,73.0005
51.4261,73.0005
56.8362,73.0005
56.8362,73.0028
56.9148,73.0106
57.0005,73.0564
57.0621,73.1315
57.0903,73.2244
57.0808,73.3211
57.0350,73.4068
56.9707,73.4596
56.9719,73.4615
56.9636,73.4667
56.7725,73.6055
56.6055,73.7725
56.5769,73.8119
56.5151,73.8969
56.4438,73.9628
56.3526,73.9964
56.3137,73.9995
51.4140,73.9995
51.3187,73.9805
51.2379,73.9266
48.8699,71.5585
48.8159,71.4777
48.7969,71.3824
48.8159,71.2871
48.8340,71.2517
48.8848,71.1693
48.8972,71.1319
48.9400,71.0028
48.9400,71.0028
48.9505,70.9000
48.9505,70.1000
48.9400,69.9972
48.8848,69.8307
48.7927,69.6813
48.7874,69.6761
48.7335,69.5953
48.7145,69.5000
48.7335,69.4047
48.7874,69.3239
48.7927,69.3187
48.8848,69.1693
48.9400,69.0028
48.9505,68.9000
48.9505,68.1000
48.9400,67.9972
48.8848,67.8307
48.7927,67.6813
48.6687,67.5573
48.6687,67.5573
48.6687,67.5573
48.6188,67.5265
48.5476,67.4604
48.5072,67.3720
48.5005,67.3146
48.5005,66.1905
48.5195,66.0952
48.5734,66.0145
48.6542,65.9605
48.7495,65.9415
48.7748,65.9428
48.8500,65.9505
49.6500,65.9505
49.7528,65.9400
49.9193,65.8848
50.0687,65.7927
50.0739,65.7874
50.0823,65.7819
50.0885,65.7740
50.1224,65.7550
50.1547,65.7335
50.1646,65.7315
50.1733,65.7266
50.2119,65.7221
50.2500,65.7145
Z" /> 
<path style="fill:#000000; fill-opacity:1.0000; stroke:none;fill-rule:evenodd;"
d="M 45.3448,74.6830
45.4256,74.7369
50.3006,79.6119
50.3545,79.6927
50.3735,79.7880
50.3545,79.8833
50.3006,79.9641
50.2198,80.0181
50.1245,80.0370
50.0855,80.0339
49.8681,79.9995
49.6319,79.9995
49.6319,79.9995
49.4801,80.0235
49.3830,80.0197
49.2948,79.9791
49.2650,79.9537
45.0734,75.7621
45.0195,75.6813
45.0005,75.5860
45.0005,74.9130
45.0195,74.8177
45.0734,74.7369
45.1542,74.6830
45.2495,74.6640
Z" /> 
<path style="fill:#000000; fill-opacity:1.0000; stroke:none;fill-rule:evenodd;"
d="M 44.3448,77.1830
44.4256,77.2369
46.8006,79.6119
46.8545,79.6927
46.8735,79.7880
46.8545,79.8833
46.8006,79.9641
46.7198,80.0181
46.6245,80.0370
46.5855,80.0339
46.3681,79.9995
46.1319,79.9995
46.1319,79.9995
45.9801,80.0235
45.8830,80.0197
45.7948,79.9791
45.7650,79.9537
44.0734,78.2621
44.0195,78.1813
44.0005,78.0860
44.0005,77.4130
44.0195,77.3177
44.0734,77.2369
44.1542,77.1830
44.2495,77.1640
Z" /> 
<path style="fill:#000000; fill-opacity:1.0000; stroke:none;fill-rule:evenodd;"
d="M 46.9435,62.5853
47.0243,62.6392
47.0783,62.7200
47.0972,62.8153
47.0783,62.9106
47.0283,63.0311
47.0283,63.0311
46.9995,63.1761
46.9995,67.3146
46.9805,67.4099
46.9266,67.4907
46.8812,67.5265
46.8313,67.5573
46.7073,67.6813
46.6152,67.8307
46.5600,67.9972
46.5600,67.9972
46.5495,68.1000
46.5495,68.9000
46.5600,69.0028
46.6152,69.1693
46.6152,69.1693
46.7073,69.3187
46.7126,69.3239
46.7665,69.4047
46.7855,69.5000
46.7665,69.5953
46.7126,69.6761
46.7088,69.6798
46.7073,69.6813
46.6152,69.8307
46.5600,69.9972
46.5600,69.9972
46.5495,70.1000
46.5495,70.9000
46.5600,71.0028
46.6105,71.1552
46.6152,71.1693
46.7073,71.3187
46.8313,71.4427
46.8313,71.4427
46.9009,71.4856
46.9721,71.5518
47.0015,71.6053
47.0100,71.6266
47.0283,71.7189
47.0849,71.8555
47.1110,71.8945
47.1670,71.9784
50.5216,75.3330
50.5953,75.3822
50.6445,75.4151
50.7811,75.4717
50.9261,75.5005
50.9261,75.5005
50.9261,75.5005
50.9261,75.5005
51.0739,75.5005
56.3137,75.5005
56.4090,75.5195
56.4897,75.5734
56.5151,75.6031
56.5719,75.6813
56.6055,75.7275
56.6055,75.7275
56.7725,75.8945
56.7725,75.8945
56.7725,75.8945
56.9636,76.0333
56.9636,76.0333
56.9636,76.0333
57.1740,76.1406
57.3986,76.2136
57.6319,76.2505
57.6319,76.2505
57.8681,76.2505
57.8681,76.2505
58.1014,76.2136
58.3260,76.1406
58.5364,76.0333
58.7275,75.8945
58.8945,75.7275
59.0333,75.5364
59.1406,75.3260
59.2136,75.1014
59.2505,74.8681
59.2505,74.6319
59.2136,74.3986
59.1406,74.1740
59.0333,73.9636
59.0333,73.9636
59.0333,73.9636
58.8945,73.7725
58.8945,73.7725
58.8945,73.7725
58.7275,73.6055
58.7275,73.6055
58.7275,73.6055
58.5364,73.4667
58.4190,73.4068
58.3260,73.3594
58.3260,73.3594
58.3260,73.3594
58.2011,73.3188
58.1014,73.2864
58.1014,73.2864
58.1014,73.2864
57.8681,73.2495
57.8681,73.2495
57.8681,73.2495
57.6319,73.2495
57.6319,73.2495
57.6319,73.2495
57.4069,73.2851
57.3098,73.2813
57.2216,73.2407
57.1556,73.1693
57.1220,73.0782
57.1258,72.9811
57.1665,72.8928
57.2000,72.8553
57.2139,72.8426
57.2284,72.8330
57.2691,72.7923
57.2732,72.7885
57.3101,72.7662
57.3458,72.7423
57.3515,72.7412
57.3564,72.7382
57.3989,72.7318
57.4411,72.7234
57.4497,72.7241
57.4524,72.7236
57.4562,72.7246
57.4801,72.7265
57.5545,72.7382
57.6319,72.7505
57.6319,72.7505
57.8681,72.7505
57.8681,72.7505
58.1014,72.7136
58.3260,72.6406
58.5364,72.5333
58.7275,72.3945
58.8945,72.2275
59.0333,72.0364
59.1406,71.8260
59.2136,71.6014
59.2505,71.3681
59.2505,71.1319
59.2136,70.8986
59.1406,70.6740
59.0333,70.4636
59.0333,70.4636
59.0333,70.4636
58.8945,70.2725
58.8945,70.2725
58.8945,70.2725
58.7275,70.1055
58.7275,70.1055
58.7275,70.1055
58.6613,70.0573
58.5953,69.9860
58.5617,69.8948
58.5655,69.7978
58.6062,69.7095
58.6315,69.6798
61.0354,67.2759
61.1162,67.2220
61.2115,67.2030
61.3068,67.2220
61.3876,67.2759
61.4415,67.3567
61.4605,67.4520
61.4605,84.9335
61.4415,85.0288
61.3876,85.1096
61.3068,85.1635
61.2115,85.1825
34.0005,85.1825
33.9052,85.1635
33.8244,85.1096
33.7705,85.0288
33.7515,84.9335
33.7515,66.5782
33.7705,66.4830
33.8244,66.4022
33.9052,66.3482
34.0005,66.3292
34.0958,66.3482
34.1766,66.4022
34.2305,66.4830
34.2373,66.5013
34.2612,66.5747
34.2621,66.5776
34.2621,66.5776
34.3622,66.7740
34.3622,66.7740
34.3622,66.7740
34.4918,66.9524
34.6476,67.1082
34.8260,67.2378
34.8260,67.2378
34.8260,67.2378
35.0224,67.3379
35.0224,67.3379
35.0224,67.3379
35.2320,67.4060
35.2321,67.4060
35.2321,67.4060
35.2926,67.4156
35.4498,67.4405
35.4498,67.4405
35.6702,67.4405
35.6702,67.4405
35.8880,67.4060
36.0976,67.3379
36.1260,67.3234
36.2940,67.2378
36.2940,67.2378
36.2940,67.2378
36.3541,67.1941
36.4424,67.1535
36.5395,67.1496
36.6306,67.1833
36.7019,67.2492
36.7426,67.3375
36.7495,67.3956
36.7495,69.8137
36.7305,69.9090
36.6766,69.9897
36.6469,70.0151
36.5225,70.1055
36.3555,70.2725
36.2167,70.4636
36.1094,70.6740
36.0364,70.8986
35.9995,71.1319
35.9995,71.1319
35.9995,71.3681
35.9995,71.3681
36.0321,71.5739
36.0364,71.6014
36.0688,71.7011
36.1088,71.8239
36.1094,71.8260
36.1245,71.8555
36.2167,72.0364
36.3555,72.2275
36.3555,72.2275
36.3555,72.2275
36.5225,72.3945
36.5225,72.3945
36.5225,72.3945
36.7136,72.5333
36.7136,72.5333
36.7136,72.5333
36.9240,72.6406
37.1486,72.7136
37.3819,72.7505
37.3819,72.7505
37.6181,72.7505
37.6181,72.7505
37.7699,72.7265
37.8355,72.7161
37.8552,72.7168
37.8745,72.7130
37.9033,72.7187
37.9326,72.7199
37.9505,72.7281
37.9698,72.7319
37.9942,72.7483
38.0209,72.7605
38.0342,72.7750
38.0506,72.7859
38.0669,72.8103
38.0868,72.8319
38.0936,72.8503
38.1045,72.8667
38.1103,72.8955
38.1204,72.9230
38.1197,72.9427
38.1235,72.9620
38.1178,72.9908
38.1166,73.0201
38.1084,73.0380
38.1045,73.0573
38.0882,73.0817
38.0759,73.1084
38.0506,73.1381
37.9849,73.2037
37.9042,73.2577
37.8089,73.2766
37.7699,73.2735
37.6181,73.2495
37.3819,73.2495
37.3819,73.2495
37.3819,73.2495
37.1486,73.2864
36.9240,73.3594
36.7136,73.4667
36.5225,73.6055
36.3555,73.7725
36.2167,73.9636
36.1094,74.1740
36.0364,74.3986
35.9995,74.6319
35.9995,74.6319
35.9995,74.8681
35.9995,74.8681
36.0364,75.1014
36.0364,75.1014
36.1094,75.3260
36.1548,75.4151
36.2167,75.5364
36.3555,75.7275
36.3555,75.7275
36.3555,75.7275
36.5225,75.8945
36.5225,75.8945
36.5225,75.8945
36.7136,76.0333
36.7136,76.0333
36.7136,76.0333
36.9240,76.1406
37.1486,76.2136
37.1636,76.2159
37.2547,76.2495
37.3261,76.3155
37.3668,76.4037
37.3706,76.5008
37.3369,76.5920
37.3007,76.6379
35.1670,78.7716
35.1178,78.8453
35.0849,78.8945
35.0849,78.8945
35.0283,79.0311
34.9995,79.1761
34.9995,80.0637
34.9805,80.1590
34.9266,80.2397
34.8969,80.2651
34.7725,80.3555
34.6055,80.5225
34.4667,80.7136
34.3594,80.9240
34.2864,81.1486
34.2495,81.3819
34.2495,81.3819
34.2495,81.6181
34.2495,81.6181
34.2864,81.8514
34.2864,81.8514
34.3594,82.0760
34.4597,82.2727
34.4667,82.2864
34.6055,82.4775
34.6055,82.4775
34.6055,82.4775
34.7725,82.6445
34.7725,82.6445
34.7725,82.6445
34.9636,82.7833
34.9636,82.7833
34.9636,82.7833
35.1740,82.8906
35.3986,82.9636
35.6319,83.0005
35.6319,83.0005
35.8681,83.0005
35.8681,83.0005
36.1014,82.9636
36.3260,82.8906
36.5364,82.7833
36.7275,82.6445
36.8945,82.4775
37.0333,82.2864
37.1406,82.0760
37.2136,81.8514
37.2505,81.6181
37.2505,81.3819
37.2136,81.1486
37.1406,80.9240
37.0333,80.7136
37.0333,80.7136
37.0333,80.7136
36.8945,80.5225
36.8945,80.5225
36.8945,80.5225
36.7275,80.3555
36.7275,80.3555
36.7275,80.3555
36.6031,80.2651
36.5898,80.2507
36.5734,80.2397
36.5571,80.2153
36.5372,80.1938
36.5304,80.1753
36.5195,80.1590
36.5137,80.1302
36.5036,80.1026
36.5005,80.0637
36.5005,79.6640
36.5195,79.5687
36.5734,79.4879
38.0744,77.9869
38.1552,77.9330
38.2505,77.9140
38.3458,77.9330
38.4266,77.9869
38.4805,78.0677
38.4995,78.1630
38.4995,80.0637
38.4805,80.1590
38.4266,80.2397
38.3969,80.2651
38.2725,80.3555
38.1055,80.5225
37.9667,80.7136
37.8594,80.9240
37.7864,81.1486
37.7495,81.3819
37.7495,81.3819
37.7495,81.6181
37.7495,81.6181
37.7864,81.8514
37.7864,81.8514
37.8594,82.0760
37.9597,82.2727
37.9667,82.2864
38.1055,82.4775
38.1055,82.4775
38.1055,82.4775
38.2725,82.6445
38.2725,82.6445
38.2725,82.6445
38.4636,82.7833
38.4636,82.7833
38.4636,82.7833
38.6740,82.8906
38.8986,82.9636
39.1319,83.0005
39.1319,83.0005
39.3681,83.0005
39.3681,83.0005
39.6014,82.9636
39.8260,82.8906
40.0364,82.7833
40.2275,82.6445
40.3945,82.4775
40.5333,82.2864
40.6406,82.0760
40.7136,81.8514
40.7505,81.6181
40.7505,81.3819
40.7136,81.1486
40.6406,80.9240
40.5333,80.7136
40.5333,80.7136
40.5333,80.7136
40.3945,80.5225
40.3945,80.5225
40.3945,80.5225
40.2275,80.3555
40.2275,80.3555
40.2275,80.3555
40.1031,80.2651
40.0372,80.1938
40.0036,80.1026
40.0005,80.0637
40.0005,77.6640
40.0195,77.5687
40.0734,77.4879
41.0744,76.4869
41.1552,76.4330
41.2505,76.4140
41.3458,76.4330
41.4266,76.4869
41.4805,76.5677
41.4995,76.6630
41.4995,80.5897
41.4805,80.6850
41.4706,80.7046
41.4711,80.7049
41.3594,80.9240
41.3594,80.9240
41.2864,81.1486
41.2495,81.3819
41.2495,81.3819
41.2495,81.6181
41.2495,81.6181
41.2864,81.8514
41.2864,81.8514
41.3594,82.0760
41.4597,82.2727
41.4667,82.2864
41.6055,82.4775
41.6055,82.4775
41.6055,82.4775
41.7725,82.6445
41.7725,82.6445
41.7725,82.6445
41.9636,82.7833
41.9636,82.7833
41.9636,82.7833
42.1740,82.8906
42.3986,82.9636
42.6319,83.0005
42.6319,83.0005
42.8681,83.0005
42.8681,83.0005
43.1014,82.9636
43.3260,82.8906
43.5364,82.7833
43.7275,82.6445
43.8945,82.4775
44.0333,82.2864
44.1406,82.0760
44.2136,81.8514
44.2505,81.6181
44.2505,81.3819
44.2265,81.2301
44.2161,81.1645
44.2168,81.1448
44.2130,81.1255
44.2187,81.0967
44.2199,81.0674
44.2281,81.0495
44.2319,81.0302
44.2483,81.0058
44.2605,80.9791
44.2750,80.9658
44.2859,80.9494
44.3103,80.9331
44.3319,80.9132
44.3503,80.9064
44.3667,80.8955
44.3955,80.8897
44.4230,80.8796
44.4427,80.8803
44.4620,80.8765
44.4908,80.8822
44.5201,80.8834
44.5380,80.8916
44.5573,80.8955
44.5817,80.9118
44.6084,80.9241
44.6381,80.9494
44.7037,81.0151
44.7577,81.0958
44.7766,81.1911
44.7735,81.2301
44.7495,81.3819
44.7495,81.6181
44.7495,81.6181
44.7864,81.8514
44.7864,81.8514
44.8594,82.0760
44.9597,82.2727
44.9667,82.2864
45.1055,82.4775
45.1055,82.4775
45.1055,82.4775
45.2725,82.6445
45.2725,82.6445
45.2725,82.6445
45.4636,82.7833
45.4636,82.7833
45.4636,82.7833
45.6740,82.8906
45.8986,82.9636
46.1319,83.0005
46.1319,83.0005
46.3681,83.0005
46.3681,83.0005
46.6014,82.9636
46.8260,82.8906
47.0364,82.7833
47.2275,82.6445
47.3945,82.4775
47.5333,82.2864
47.6406,82.0760
47.7136,81.8514
47.7505,81.6181
47.7505,81.3819
47.7265,81.2301
47.7161,81.1645
47.7168,81.1448
47.7130,81.1255
47.7187,81.0967
47.7199,81.0674
47.7281,81.0495
47.7319,81.0302
47.7483,81.0058
47.7605,80.9791
47.7750,80.9658
47.7859,80.9494
47.8103,80.9331
47.8319,80.9132
47.8503,80.9064
47.8667,80.8955
47.8955,80.8897
47.9230,80.8796
47.9427,80.8803
47.9620,80.8765
47.9908,80.8822
48.0201,80.8834
48.0380,80.8916
48.0573,80.8955
48.0817,80.9118
48.1084,80.9241
48.1381,80.9494
48.2037,81.0151
48.2577,81.0958
48.2766,81.1911
48.2735,81.2301
48.2495,81.3819
48.2495,81.6181
48.2495,81.6181
48.2864,81.8514
48.2864,81.8514
48.3594,82.0760
48.4597,82.2727
48.4667,82.2864
48.6055,82.4775
48.6055,82.4775
48.6055,82.4775
48.7725,82.6445
48.7725,82.6445
48.7725,82.6445
48.9636,82.7833
48.9636,82.7833
48.9636,82.7833
49.1740,82.8906
49.3986,82.9636
49.6319,83.0005
49.6319,83.0005
49.8681,83.0005
49.8681,83.0005
50.1014,82.9636
50.3260,82.8906
50.5364,82.7833
50.7275,82.6445
50.8945,82.4775
51.0333,82.2864
51.1406,82.0760
51.2136,81.8514
51.2505,81.6181
51.2505,81.3819
51.2265,81.2301
51.2161,81.1645
51.2168,81.1448
51.2130,81.1255
51.2187,81.0967
51.2199,81.0674
51.2281,81.0495
51.2319,81.0302
51.2483,81.0058
51.2605,80.9791
51.2750,80.9658
51.2859,80.9494
51.3103,80.9331
51.3319,80.9132
51.3503,80.9064
51.3667,80.8955
51.3955,80.8897
51.4230,80.8796
51.4427,80.8803
51.4620,80.8765
51.4908,80.8822
51.5201,80.8834
51.5380,80.8916
51.5573,80.8955
51.5817,80.9118
51.6084,80.9241
51.6381,80.9494
51.7037,81.0151
51.7577,81.0958
51.7766,81.1911
51.7735,81.2301
51.7495,81.3819
51.7495,81.6181
51.7495,81.6181
51.7864,81.8514
51.7864,81.8514
51.8594,82.0760
51.9597,82.2727
51.9667,82.2864
52.1055,82.4775
52.1055,82.4775
52.1055,82.4775
52.2725,82.6445
52.2725,82.6445
52.2725,82.6445
52.4636,82.7833
52.4636,82.7833
52.4636,82.7833
52.6740,82.8906
52.8986,82.9636
53.1319,83.0005
53.1319,83.0005
53.3681,83.0005
53.3681,83.0005
53.6014,82.9636
53.8260,82.8906
54.0364,82.7833
54.2275,82.6445
54.3945,82.4775
54.5333,82.2864
54.6406,82.0760
54.7136,81.8514
54.7505,81.6181
54.7505,81.3819
54.7136,81.1486
54.6406,80.9240
54.5333,80.7136
54.5333,80.7136
54.5333,80.7136
54.3945,80.5225
54.3945,80.5225
54.3945,80.5225
54.2275,80.3555
54.2275,80.3555
54.2275,80.3555
54.0364,80.2167
54.0227,80.2097
53.8260,80.1094
53.8260,80.1094
53.8260,80.1094
53.6852,80.0637
53.6014,80.0364
53.6014,80.0364
53.6014,80.0364
53.3681,79.9995
53.3681,79.9995
53.3681,79.9995
53.1319,79.9995
53.1319,79.9995
52.9801,80.0235
52.8830,80.0197
52.7948,79.9791
52.7650,79.9537
46.0734,73.2621
46.0195,73.1813
46.0005,73.0860
46.0005,63.4140
46.0195,63.3187
46.0734,63.2379
46.6721,62.6392
46.7529,62.5853
46.8482,62.5663
Z" /> 
</g>
<g style="fill:#FFFFFF; fill-opacity:1.0000; stroke:none;">
<circle cx="49.7500" cy="81.5000" r="0.5000" /> 
</g>
<g style="fill:#FFFFFF; fill-opacity:1.0000; stroke:none;">
<circle cx="53.2500" cy="81.5000" r="0.5000" /> 
</g>
<g style="fill:#FFFFFF; fill-opacity:1.0000; stroke:none;">
<circle cx="35.7500" cy="81.5000" r="0.5000" /> 
</g>
<g style="fill:#FFFFFF; fill-opacity:1.0000; stroke:none;">
<circle cx="39.2500" cy="81.5000" r="0.5000" /> 
</g>
<g style="fill:#FFFFFF; fill-opacity:1.0000; stroke:none;">
<circle cx="35.5600" cy="48.2600" r="0.4000" /> 
</g>
<g style="fill:#FFFFFF; fill-opacity:1.0000; stroke:none;">
<circle cx="35.5600" cy="50.8000" r="0.4000" /> 
</g>
<g style="fill:#FFFFFF; fill-opacity:1.0000; stroke:none;">
<circle cx="35.5600" cy="53.3400" r="0.4000" /> 
</g>
<g style="fill:#FFFFFF; fill-opacity:1.0000; stroke:none;">
<circle cx="35.5600" cy="55.8800" r="0.4000" /> 
</g>
<g style="fill:#FFFFFF; fill-opacity:1.0000; stroke:none;">
<circle cx="35.5600" cy="58.4200" r="0.4000" /> 
</g>
<g style="fill:#FFFFFF; fill-opacity:1.0000; stroke:none;">
<circle cx="35.5600" cy="60.9600" r="0.4000" /> 
</g>
<g style="fill:#FFFFFF; fill-opacity:1.0000; stroke:none;">
<circle cx="35.5600" cy="63.5000" r="0.4000" /> 
</g>
<g style="fill:#FFFFFF; fill-opacity:1.0000; stroke:none;">
<circle cx="35.5600" cy="66.0400" r="0.4000" /> 
</g>
<g style="fill:#FFFFFF; fill-opacity:1.0000; stroke:none;">
<circle cx="58.4200" cy="48.2600" r="0.4000" /> 
</g>
<g style="fill:#FFFFFF; fill-opacity:1.0000; stroke:none;">
<circle cx="58.4200" cy="50.8000" r="0.4000" /> 
</g>
<g style="fill:#FFFFFF; fill-opacity:1.0000; stroke:none;">
<circle cx="58.4200" cy="53.3400" r="0.4000" /> 
</g>
<g style="fill:#FFFFFF; fill-opacity:1.0000; stroke:none;">
<circle cx="58.4200" cy="55.8800" r="0.4000" /> 
</g>
<g style="fill:#FFFFFF; fill-opacity:1.0000; stroke:none;">
<circle cx="58.4200" cy="58.4200" r="0.4000" /> 
</g>
<g style="fill:#FFFFFF; fill-opacity:1.0000; stroke:none;">
<circle cx="58.4200" cy="60.9600" r="0.4000" /> 
</g>
<g style="fill:#FFFFFF; fill-opacity:1.0000; stroke:none;">
<circle cx="58.4200" cy="63.5000" r="0.4000" /> 
</g>
<g style="fill:#FFFFFF; fill-opacity:1.0000; stroke:none;">
<circle cx="58.4200" cy="66.0400" r="0.4000" /> 
</g>
<g style="fill:#FFFFFF; fill-opacity:1.0000; stroke:none;">
<circle cx="57.7500" cy="74.7500" r="0.5000" /> 
</g>
<g style="fill:#FFFFFF; fill-opacity:1.0000; stroke:none;">
<circle cx="57.7500" cy="71.2500" r="0.5000" /> 
</g>
<g style="fill:#FFFFFF; fill-opacity:1.0000; stroke:none;">
<circle cx="37.5000" cy="71.2500" r="0.5000" /> 
</g>
<g style="fill:#FFFFFF; fill-opacity:1.0000; stroke:none;">
<circle cx="37.5000" cy="74.7500" r="0.5000" /> 
</g>
<g style="fill:#FFFFFF; fill-opacity:1.0000; stroke:none;">
<circle cx="42.7500" cy="81.5000" r="0.5000" /> 
</g>
<g style="fill:#FFFFFF; fill-opacity:1.0000; stroke:none;">
<circle cx="46.2500" cy="81.5000" r="0.5000" /> 
</g>
<g style="fill:#FFFFFF; fill-opacity:1.0000; stroke:none;">
<circle cx="49.7500" cy="81.5000" r="0.5000" /> 
</g>
<g style="fill:#FFFFFF; fill-opacity:1.0000; stroke:none;">
<circle cx="53.2500" cy="81.5000" r="0.5000" /> 
</g>
<g style="fill:#FFFFFF; fill-opacity:1.0000; stroke:none;">
<circle cx="35.7500" cy="81.5000" r="0.5000" /> 
</g>
<g style="fill:#FFFFFF; fill-opacity:1.0000; stroke:none;">
<circle cx="39.2500" cy="81.5000" r="0.5000" /> 
</g>
<g style="fill:#FFFFFF; fill-opacity:1.0000; stroke:none;">
<circle cx="35.5600" cy="48.2600" r="0.4000" /> 
</g>
<g style="fill:#FFFFFF; fill-opacity:1.0000; stroke:none;">
<circle cx="35.5600" cy="50.8000" r="0.4000" /> 
</g>
<g style="fill:#FFFFFF; fill-opacity:1.0000; stroke:none;">
<circle cx="35.5600" cy="53.3400" r="0.4000" /> 
</g>
<g style="fill:#FFFFFF; fill-opacity:1.0000; stroke:none;">
<circle cx="35.5600" cy="55.8800" r="0.4000" /> 
</g>
<g style="fill:#FFFFFF; fill-opacity:1.0000; stroke:none;">
<circle cx="35.5600" cy="58.4200" r="0.4000" /> 
</g>
<g style="fill:#FFFFFF; fill-opacity:1.0000; stroke:none;">
<circle cx="35.5600" cy="60.9600" r="0.4000" /> 
</g>
<g style="fill:#FFFFFF; fill-opacity:1.0000; stroke:none;">
<circle cx="35.5600" cy="63.5000" r="0.4000" /> 
</g>
<g style="fill:#FFFFFF; fill-opacity:1.0000; stroke:none;">
<circle cx="35.5600" cy="66.0400" r="0.4000" /> 
</g>
<g style="fill:#FFFFFF; fill-opacity:1.0000; stroke:none;">
<circle cx="58.4200" cy="48.2600" r="0.4000" /> 
</g>
<g style="fill:#FFFFFF; fill-opacity:1.0000; stroke:none;">
<circle cx="58.4200" cy="50.8000" r="0.4000" /> 
</g>
<g style="fill:#FFFFFF; fill-opacity:1.0000; stroke:none;">
<circle cx="58.4200" cy="53.3400" r="0.4000" /> 
</g>
<g style="fill:#FFFFFF; fill-opacity:1.0000; stroke:none;">
<circle cx="58.4200" cy="55.8800" r="0.4000" /> 
</g>
<g style="fill:#FFFFFF; fill-opacity:1.0000; stroke:none;">
<circle cx="58.4200" cy="58.4200" r="0.4000" /> 
</g>
<g style="fill:#FFFFFF; fill-opacity:1.0000; stroke:none;">
<circle cx="58.4200" cy="60.9600" r="0.4000" /> 
</g>
<g style="fill:#FFFFFF; fill-opacity:1.0000; stroke:none;">
<circle cx="58.4200" cy="63.5000" r="0.4000" /> 
</g>
<g style="fill:#FFFFFF; fill-opacity:1.0000; stroke:none;">
<circle cx="58.4200" cy="66.0400" r="0.4000" /> 
</g>
<g style="fill:#FFFFFF; fill-opacity:1.0000; stroke:none;">
<circle cx="57.7500" cy="74.7500" r="0.5000" /> 
</g>
<g style="fill:#FFFFFF; fill-opacity:1.0000; stroke:none;">
<circle cx="57.7500" cy="71.2500" r="0.5000" /> 
</g>
<g style="fill:#FFFFFF; fill-opacity:1.0000; stroke:none;">
<circle cx="37.5000" cy="71.2500" r="0.5000" /> 
</g>
<g style="fill:#FFFFFF; fill-opacity:1.0000; stroke:none;">
<circle cx="37.5000" cy="74.7500" r="0.5000" /> 
</g>
<g style="fill:#FFFFFF; fill-opacity:1.0000; stroke:none;">
<circle cx="42.7500" cy="81.5000" r="0.5000" /> 
</g>
<g style="fill:#FFFFFF; fill-opacity:1.0000; stroke:none;">
<circle cx="46.2500" cy="81.5000" r="0.5000" /> 
</g> 
</svg>
